<svg width="27" height="36" viewBox="0 0 27 36" fill="none" xmlns="http://www.w3.org/2000/svg">
<path d="M20.8125 15.6728V9.36107C20.8125 7.35231 20.0421 5.42582 18.6707 4.00541C17.2994 2.585 15.4394 1.78703 13.5 1.78703C11.5606 1.78703 9.70064 2.585 8.32928 4.00541C6.95792 5.42582 6.1875 7.35231 6.1875 9.36107V15.6728M4.96875 34.6079H22.0312C23.0009 34.6079 23.9309 34.2089 24.6166 33.4987C25.3023 32.7885 25.6875 31.8253 25.6875 30.8209V19.4598C25.6875 18.4554 25.3023 17.4922 24.6166 16.782C23.9309 16.0718 23.0009 15.6728 22.0312 15.6728H4.96875C3.99905 15.6728 3.06907 16.0718 2.38339 16.782C1.69771 17.4922 1.3125 18.4554 1.3125 19.4598V30.8209C1.3125 31.8253 1.69771 32.7885 2.38339 33.4987C3.06907 34.2089 3.99905 34.6079 4.96875 34.6079Z" stroke="white" stroke-width="2" stroke-linecap="round" stroke-linejoin="round"/>
</svg>
