<svg width="33" height="31" viewBox="0 0 33 31" fill="none" xmlns="http://www.w3.org/2000/svg">
<path d="M18.6868 13.3125V7.84372C18.6868 6.10324 19.3782 4.43404 20.6089 3.20333C21.8396 1.97262 23.5088 1.28122 25.2493 1.28122C26.9898 1.28122 28.6589 1.97262 29.8897 3.20333C31.1204 4.43404 31.8118 6.10324 31.8118 7.84372V13.3125M4.46802 29.7187H19.7805C20.6508 29.7187 21.4854 29.373 22.1007 28.7577C22.7161 28.1423 23.0618 27.3077 23.0618 26.4375V16.5937C23.0618 15.7235 22.7161 14.8889 22.1007 14.2735C21.4854 13.6582 20.6508 13.3125 19.7805 13.3125H4.46802C3.59778 13.3125 2.76318 13.6582 2.14782 14.2735C1.53247 14.8889 1.18677 15.7235 1.18677 16.5937V26.4375C1.18677 27.3077 1.53247 28.1423 2.14782 28.7577C2.76318 29.373 3.59778 29.7187 4.46802 29.7187Z" stroke="white" stroke-width="2" stroke-linecap="round" stroke-linejoin="round"/>
</svg>
