<svg width="18" height="19" viewBox="0 0 18 19" fill="none" xmlns="http://www.w3.org/2000/svg">
<path d="M16.3525 6.79621H15.8792V4.59466C15.8792 4.58083 15.8769 4.56711 15.875 4.55307C15.8743 4.46575 15.8454 4.37981 15.7833 4.31189L11.9827 0.12742C11.9816 0.126241 11.9804 0.125895 11.9796 0.124821C11.957 0.100321 11.9306 0.0800487 11.9027 0.0625836C11.8944 0.057143 11.8861 0.0526728 11.8774 0.0480639C11.8532 0.0354155 11.8275 0.024777 11.8011 0.0171186C11.7939 0.0153167 11.7875 0.0124751 11.7804 0.0106039C11.7516 0.00408907 11.7218 0 11.6917 0H2.35116C1.92462 0 1.57815 0.334368 1.57815 0.745112V6.796H1.10492C0.494737 6.796 0 7.27269 0 7.86089V13.3988C0 13.9867 0.494737 14.4639 1.10492 14.4639H1.57815V18.2549C1.57815 18.6657 1.92462 19 2.35116 19H15.1061C15.5323 19 15.8792 18.6657 15.8792 18.2549V14.4639H16.3525C16.9624 14.4639 17.4572 13.987 17.4572 13.399V7.8611C17.4573 7.27272 16.9624 6.79621 16.3525 6.79621ZM2.35116 0.745112H11.3051V4.55716C11.3051 4.763 11.4784 4.92972 11.6917 4.92972H15.1061V6.79617H2.35116V0.745112ZM8.17041 10.8527C7.2112 10.5307 6.58625 10.0192 6.58625 9.21049C6.58625 8.26086 7.40815 7.53439 8.76973 7.53439C9.42071 7.53439 9.90031 7.66645 10.2426 7.81532L9.95176 8.83066C9.72059 8.72299 9.30958 8.56618 8.74413 8.56618C8.17907 8.56618 7.90504 8.81392 7.90504 9.10279C7.90504 9.45788 8.2303 9.61458 8.9757 9.88706C9.99462 10.2502 10.4742 10.7617 10.4742 11.546C10.4742 12.4785 9.72925 13.2713 8.14481 13.2713C7.48552 13.2713 6.83439 13.1058 6.50909 12.9327L6.77442 11.8926C7.12574 12.0663 7.66513 12.2393 8.222 12.2393C8.82135 12.2393 9.13834 11.9999 9.13834 11.6365C9.13816 11.2896 8.86396 11.0917 8.17041 10.8527ZM1.37028 10.4892C1.37028 8.59089 2.77507 7.53439 4.52163 7.53439C5.19832 7.53439 5.71211 7.66645 5.9435 7.78212L5.67774 8.78069C5.41241 8.67382 5.04383 8.57488 4.58152 8.57488C3.54531 8.57488 2.74056 9.17698 2.74056 10.4149C2.74056 11.5293 3.42548 12.2308 4.59051 12.2308C4.98408 12.2308 5.4209 12.1483 5.67774 12.0492L5.87486 13.0315C5.63499 13.1473 5.09564 13.2713 4.39335 13.2713C2.39801 13.2713 1.37028 12.074 1.37028 10.4892ZM15.1061 18.053H2.35116V14.4639H15.1061V18.053ZM14.2427 13.1884H12.7184L10.8686 7.62532H12.2991L13.0011 9.97806C13.1981 10.6381 13.3778 11.2736 13.5152 11.967H13.5406C13.6862 11.2983 13.8658 10.638 14.0629 10.0025L14.7994 7.62532H16.1872L14.2427 13.1884Z" fill="#0A9D3C"/>
</svg>
