<svg width="17" height="19" viewBox="0 0 17 19" fill="none" xmlns="http://www.w3.org/2000/svg">
<path d="M11.77 0H3.8528C2.69617 0 1.7548 0.907991 1.7548 2.0222V9.49996H1.54988C1.08306 9.49996 0.704468 9.86452 0.704468 10.3149V15.2567C0.704468 15.7071 1.08302 16.0716 1.54988 16.0716H1.7548V16.9778C1.7548 18.0932 2.69617 19 3.8528 19H14.6555C15.8114 19 16.7529 18.0932 16.7529 16.9778V4.78602L11.77 0ZM2.92234 11.2067C3.17011 11.1664 3.51836 11.1359 4.00902 11.1359C4.50487 11.1359 4.85828 11.2272 5.09574 11.4104C5.32257 11.5831 5.47564 11.8681 5.47564 12.2036C5.47564 12.5389 5.35965 12.824 5.1486 13.0172C4.8741 13.2662 4.46816 13.378 3.99328 13.378C3.88759 13.378 3.79286 13.373 3.71878 13.3631V14.5885H2.92234V11.2067ZM14.6555 17.7615H3.8528C3.40495 17.7615 3.04026 17.41 3.04026 16.9778V16.0716H13.1106C13.5775 16.0716 13.956 15.7071 13.956 15.2567V10.3149C13.956 9.86452 13.5775 9.49996 13.1106 9.49996H3.04026V2.0222C3.04026 1.59116 3.40499 1.23965 3.8528 1.23965L11.2893 1.23216V3.88165C11.2893 4.65554 11.9408 5.28405 12.7443 5.28405L15.437 5.2766L15.4673 16.9777C15.4673 17.41 15.1033 17.7615 14.6555 17.7615ZM5.98919 14.573V11.2067C6.28458 11.1614 6.6696 11.1359 7.07591 11.1359C7.75116 11.1359 8.18904 11.2527 8.53214 11.5017C8.90137 11.7663 9.13331 12.188 9.13331 12.7935C9.13331 13.4494 8.88555 13.9022 8.54241 14.1816C8.16802 14.4816 7.59813 14.6239 6.9019 14.6239C6.48496 14.6239 6.18957 14.5984 5.98919 14.573ZM11.7469 12.5799V13.2103H10.47V14.5885H9.66297V11.1614H11.8364V11.7967H10.47V12.5799H11.7469Z" fill="#E42A2F"/>
</svg>
