<svg width="263" height="197" viewBox="0 0 263 197" fill="none" xmlns="http://www.w3.org/2000/svg">
<path fill-rule="evenodd" clip-rule="evenodd" d="M134.795 17.6178V37.7265C134.795 45.309 138.178 48.5441 142.748 48.5441C147.776 48.5441 151.057 45.2072 151.057 37.7265V17.6178H155.394V37.4237C155.394 47.8861 150.012 52.1317 142.596 52.1317C135.588 52.1317 130.457 48.189 130.457 37.5751V17.6178H134.795Z" fill="white"/>
<path fill-rule="evenodd" clip-rule="evenodd" d="M162.139 34.5972C162.139 31.7159 162.088 29.4859 161.936 27.3283H165.847L166.05 31.6435H166.202C167.32 28.4071 169.837 26.421 172.832 26.421C173.29 26.421 173.826 26.6086 173.826 26.7091V30.8542C173.826 30.8033 173.088 30.7523 172.478 30.7523C169.329 30.7523 167.047 33.1284 166.435 36.4131C166.334 37.0697 166.236 37.7773 166.236 38.5359V51.0648H162.088L162.139 34.5972Z" fill="white"/>
<path fill-rule="evenodd" clip-rule="evenodd" d="M182.498 41.7702C182.498 42.3264 182.477 42.8826 182.579 43.3878C183.441 46.4714 186.047 48.5942 189.246 48.5942C193.969 48.5942 196.693 44.803 196.693 39.1932C196.693 34.2387 194.144 30.0441 189.372 30.0441C186.323 30.0441 183.547 32.1668 182.685 35.5038C182.532 36.0586 182.498 36.6657 182.498 37.3733V41.7702ZM178.162 15.4594H182.498V30.5654H182.454C184.029 28.4064 186.872 26.3372 190.834 26.3372C196.929 26.3372 201.195 31.5008 201.195 38.8809C201.195 47.6749 195.608 52.2246 190.123 52.2246C186.566 52.2246 183.774 51.0654 181.896 47.8277H181.794L181.539 51.0654H177.68C177.832 49.9853 178.162 47.431 178.162 45.2586V15.4594Z" fill="white"/>
<path fill-rule="evenodd" clip-rule="evenodd" d="M219.361 39.0914C213.941 38.9909 208.855 39.8499 208.855 44.6007C208.855 47.5329 210.739 48.8463 212.973 48.8463C216.222 48.8463 218.377 46.8253 219.086 44.7522C219.239 44.2979 219.361 43.7926 219.361 43.337V39.0914ZM223.699 45.713C223.699 47.8358 223.642 49.9854 223.895 51.0655H219.884L219.477 48.9066H219.325C218.004 49.9854 215.312 52.3387 211.809 52.3387C206.829 52.3387 204.436 48.7484 204.436 45.2091C204.436 39.2965 209.605 35.9582 219.361 36.0091V35.5039C219.361 33.4816 218.658 29.7922 213.628 29.8431C211.293 29.8431 208.833 30.4998 207.105 31.663L206.054 28.6799C208.086 27.4162 211.143 26.5571 214.241 26.5571C221.808 26.5571 223.699 31.663 223.699 36.5653V45.713Z" fill="white"/>
<path fill-rule="evenodd" clip-rule="evenodd" d="M229.119 33.7342C229.119 31.1571 229.582 29.486 229.43 27.3284H233.392L233.645 31.6436H233.748C234.966 28.4072 237.932 26.8271 241.996 26.8271C245.399 26.8271 250.804 28.5787 250.804 36.9693V51.0648H246.467V37.4745C246.467 33.5318 244.804 30.1962 240.589 30.1962C237.695 30.1962 235.533 32.2681 234.72 34.7447C234.518 35.3008 234.539 36.1103 234.539 36.8179V51.0648H229.119V33.7342Z" fill="white"/>
<path fill-rule="evenodd" clip-rule="evenodd" d="M134.795 93.1706C135.879 93.322 137.014 93.373 138.59 93.373C143.162 93.373 147.42 91.7139 147.42 86.7594C147.42 82.1614 143.451 80.1967 138.626 80.1967H134.795V93.1706ZM134.795 76.9603H138.982C143.603 76.9603 146.346 74.4516 146.346 71.1656C146.346 67.2242 143.261 65.5906 138.793 65.5906C136.761 65.5906 135.879 65.7259 134.795 65.8774V76.9603ZM130.457 62.9465C132.627 62.4909 135.533 62.188 138.58 62.188C142.999 62.188 145.866 62.9465 147.949 64.6646C149.726 65.9792 150.592 68.0002 150.592 70.6791C150.592 74.016 148.89 76.896 144.553 78.1597V78.3112C147.805 79.0697 151.874 81.7486 151.874 86.8023C151.874 89.7345 150.836 91.9578 149.058 93.6262C146.722 95.7986 142.883 96.8104 137.296 96.8104C134.248 96.8104 131.541 96.608 130.457 96.4057V62.9465Z" fill="white"/>
<mask id="mask0_148_292" style="mask-type:alpha" maskUnits="userSpaceOnUse" x="0" y="0" width="262" height="197">
<path d="M0 196.653H261.019V0H0V196.653Z" fill="white"/>
</mask>
<g mask="url(#mask0_148_292)">
<path fill-rule="evenodd" clip-rule="evenodd" d="M157.563 96.3812H161.899V71.5646H157.563V96.3812ZM159.245 67.2493C157.57 67.2493 156.452 66.0821 156.452 64.5155C156.452 62.9488 157.619 61.7601 159.347 61.7601C161.072 61.7601 162.19 62.9126 162.19 64.4793C162.19 66.0459 161.072 67.2493 159.295 67.2493H159.245Z" fill="white"/>
<path fill-rule="evenodd" clip-rule="evenodd" d="M184.668 81.6473C184.668 80.9397 184.576 80.2817 184.373 79.6759C183.561 77.0479 181.408 74.9251 178.106 74.9251C173.84 74.9251 170.783 78.514 170.783 84.2243C170.783 88.9751 173.266 93.0196 178.04 93.0196C180.833 93.0196 183.36 91.3003 184.274 88.4203C184.528 87.7127 184.668 86.8537 184.668 86.0442V81.6473ZM189.004 92.9178C189.004 98.5785 187.862 101.966 185.526 104.139C183.087 106.312 179.646 107.07 176.549 107.07C173.604 107.07 170.36 106.362 168.379 105.049L169.499 101.611C171.125 102.673 173.682 103.584 176.728 103.584C181.299 103.584 184.668 101.207 184.668 94.991V92.0641H184.536C183.216 94.2231 180.524 96.2815 176.715 96.2815C170.62 96.2815 166.253 91.189 166.253 84.365C166.253 76.0763 171.688 71.556 177.375 71.556C181.642 71.556 183.926 73.723 185.044 75.8807H185.146L185.3 71.5654H189.26C189.108 73.723 189.004 75.7332 189.004 78.715V92.9178Z" fill="white"/>
<path fill-rule="evenodd" clip-rule="evenodd" d="M134.795 138.001C135.879 138.203 137.625 138.203 139.351 138.203C148.797 138.253 153.971 132.947 153.971 123.749C154.021 115.61 149.386 110.607 140.04 110.607C137.755 110.607 135.879 110.808 134.795 111.062V138.001ZM130.457 107.827C133.711 107.423 136.42 107.119 139.927 107.119C146.274 107.119 150.805 108.534 153.8 111.315C156.899 114.094 158.682 118.087 158.682 123.596C158.682 129.156 156.907 133.705 153.758 136.839C150.507 140.023 145.206 141.741 138.553 141.741C135.352 141.741 132.627 141.641 130.457 141.337V107.827Z" fill="white"/>
<path fill-rule="evenodd" clip-rule="evenodd" d="M175.994 128.954C171.656 128.853 165.639 129.712 165.639 134.462C165.639 137.395 167.596 138.709 169.832 138.709C173.081 138.709 175.122 136.687 175.834 134.615C175.986 134.161 175.994 133.654 175.994 133.199V128.954ZM180.331 135.575C180.331 137.698 180.575 139.539 180.83 141.696H176.817L176.411 138.46H176.258C174.938 140.618 172.246 142.046 168.742 142.046C163.764 142.046 161.22 138.532 161.22 134.994C161.22 129.082 166.236 125.821 175.994 125.871V125.366C175.994 123.343 175.44 119.654 170.412 119.705C168.076 119.705 165.692 120.362 163.964 121.525L162.95 118.542C164.981 117.279 167.907 116.419 171.006 116.419C178.574 116.419 180.331 121.525 180.331 126.427V135.575Z" fill="white"/>
<path fill-rule="evenodd" clip-rule="evenodd" d="M192.256 111.113V116.88H197.676V120.118H192.256V133.553C192.256 136.586 192.866 138.305 195.355 138.305C196.572 138.305 197.157 138.203 197.818 138.001L197.955 141.388C197.093 141.69 195.69 141.995 193.964 141.995C191.88 141.995 190.46 141.287 189.392 140.124C188.174 138.76 187.92 136.586 187.92 133.705V120.118H183.584V116.88H187.92V112.477L192.256 111.113Z" fill="white"/>
<path fill-rule="evenodd" clip-rule="evenodd" d="M215.025 128.954C210.688 128.853 204.884 129.712 204.884 134.462C204.884 137.395 206.95 138.709 209.184 138.709C212.434 138.709 214.314 136.687 215.025 134.615C215.178 134.161 215.025 133.654 215.025 133.199V128.954ZM220.446 135.575C220.446 137.698 220.036 139.539 220.289 141.696H216.278L215.871 138.46H215.719C214.398 140.618 211.706 142.046 208.203 142.046C203.225 142.046 200.464 138.532 200.464 134.994C200.464 129.082 206.352 125.821 215.025 125.871V125.366C215.025 123.343 214.686 119.654 209.659 119.705C207.321 119.705 205.044 120.362 203.319 121.525L202.357 118.542C204.39 117.279 207.669 116.419 210.767 116.419C218.334 116.419 220.446 121.525 220.446 126.427V135.575Z" fill="white"/>
<path fill-rule="evenodd" clip-rule="evenodd" d="M154.421 181.922C152.847 182.73 149.545 183.539 145.381 183.539C135.731 183.539 128.52 177.474 128.52 166.253C128.52 155.539 135.781 148.361 146.396 148.361C150.613 148.361 153.355 149.271 154.524 149.877L153.406 153.465C151.78 152.657 149.393 152.05 146.549 152.05C138.524 152.05 133.191 157.156 133.191 166.102C133.191 174.492 138.016 179.799 146.296 179.799C149.037 179.799 151.78 179.242 153.558 178.384L154.421 181.922Z" fill="white"/>
<path fill-rule="evenodd" clip-rule="evenodd" d="M173.871 168.67C173.922 165.434 172.704 161.443 167.728 161.443C163.156 161.443 161.225 165.434 160.871 168.67H173.871ZM160.82 171.51C160.921 177.523 164.73 180.001 169.2 180.001C172.398 180.001 174.379 179.445 176.004 178.788L176.818 181.922C175.243 182.629 172.5 183.488 168.59 183.488C161.073 183.488 156.502 178.486 156.502 171.155C156.502 163.727 160.921 157.914 168.082 157.914C176.107 157.914 178.189 164.939 178.189 169.437C178.189 170.347 178.137 171.054 178.036 171.56L160.82 171.51Z" fill="white"/>
<path fill-rule="evenodd" clip-rule="evenodd" d="M182.498 165.141C182.498 162.564 182.86 160.038 182.707 158.961H186.67L186.923 162.197H187.024C188.243 160.038 191.262 157.805 195.324 157.805C198.726 157.805 204.183 159.986 204.183 168.376V182.697H199.847V168.882C199.847 164.939 198.133 161.603 193.918 161.603C191.022 161.603 188.887 163.675 188.075 166.152C187.871 166.708 187.92 167.517 187.92 168.224V182.697H182.498V165.141Z" fill="white"/>
<path fill-rule="evenodd" clip-rule="evenodd" d="M215.025 152.657V158.96H221.53V162.197H215.025V175.098C215.025 178.131 215.955 179.85 218.445 179.85C219.662 179.85 220.407 179.748 221.066 179.546L221.287 182.932C220.425 183.235 219.063 183.54 217.335 183.54C215.253 183.54 213.529 182.832 212.463 181.669C211.243 180.304 210.688 178.131 210.688 175.249V162.197H207.434V158.96H210.688V154.022L215.025 152.657Z" fill="white"/>
<path fill-rule="evenodd" clip-rule="evenodd" d="M225.57 166.229C225.57 163.348 225.52 161.118 225.368 158.96H229.279L229.481 163.275H229.634C230.752 160.039 233.535 157.94 236.533 157.94C236.989 157.94 237.792 158.014 237.792 158.116V162.261C236.708 162.21 236.786 162.159 236.176 162.159C233.026 162.159 230.878 164.534 230.27 167.82C230.167 168.478 230.204 169.185 230.204 169.943V182.697H225.52L225.57 166.229Z" fill="white"/>
<path fill-rule="evenodd" clip-rule="evenodd" d="M256.703 168.67C256.753 165.434 255.534 161.443 250.558 161.443C245.986 161.443 244.057 165.434 243.701 168.67H256.703ZM243.65 171.51C243.752 177.523 247.561 180.001 252.029 180.001C255.23 180.001 257.211 179.445 258.836 178.788L259.649 181.922C258.074 182.629 255.329 183.488 251.421 183.488C243.904 183.488 239.334 178.486 239.334 171.155C239.334 163.727 243.752 157.914 250.912 157.914C258.937 157.914 261.019 164.939 261.019 169.437C261.019 170.347 260.969 171.054 260.867 171.56L243.65 171.51Z" fill="white"/>
<path fill-rule="evenodd" clip-rule="evenodd" d="M88.2185 145.58C91.1502 145.58 93.5256 143.215 93.5256 140.297C93.5256 137.381 91.1502 135.014 88.2185 135.014C85.2869 135.014 82.9114 137.381 82.9114 140.297C82.9114 143.215 85.2869 145.58 88.2185 145.58Z" fill="#00B3DC"/>
<path d="M51.5054 113.036C54.1556 113.036 55.5423 109.783 57.3429 102.682C58.8629 96.6872 60.2823 88.6033 61.3334 79.6369C63.9404 57.3973 64.0227 33.2233 60.8023 11.3505L56.4453 11.9858C59.6056 33.4504 59.5246 57.2474 56.9595 79.1291C55.9294 87.916 54.5427 95.8144 53.0732 101.61C52.406 104.241 51.747 106.329 51.1581 107.71C50.9014 108.312 50.6726 108.743 50.5063 108.97C50.5976 108.846 50.8531 108.654 51.5054 108.654V113.036Z" fill="#1E63AF"/>
<path d="M25.4365 57.5404C25.4385 57.6622 25.4441 57.8853 25.4554 58.203C25.4739 58.7243 25.5018 59.3267 25.5409 60.0035C25.6523 61.9291 25.8315 64.0713 26.0937 66.377C26.8437 72.9711 28.1106 79.569 30.023 85.75C35.2882 102.767 44.4234 113.612 58.4387 114.793L58.81 110.426C47.0061 109.432 39.0269 99.9588 34.2316 84.4604C32.408 78.5666 31.1908 72.2273 30.4693 65.8841C30.2165 63.6618 30.044 61.5995 29.9372 59.7517C29.8999 59.1078 29.8735 58.5378 29.8562 58.0484C29.8459 57.7596 29.841 57.5649 29.8395 57.4711L25.4365 57.5404Z" fill="#1E63AF"/>
<path d="M86.572 75.8109C86.5708 75.9009 86.5656 76.0929 86.554 76.38C86.5341 76.8696 86.5026 77.4407 86.4567 78.0864C86.3249 79.9425 86.1047 82.0154 85.7758 84.2498C84.8365 90.6291 83.2178 97.0043 80.7645 102.931C73.7301 119.925 61.4575 129.838 42.3601 129.49L42.2793 133.871C63.3907 134.257 77.1663 123.129 84.8361 104.6C87.44 98.3096 89.1448 91.5953 90.1328 84.8851C90.4783 82.5382 90.71 80.357 90.8493 78.3953C90.8983 77.7048 90.9323 77.0897 90.9539 76.5567C90.9672 76.2302 90.9734 75.9995 90.9751 75.8714L86.572 75.8109Z" fill="#1E63AF"/>
<path d="M5.75925 114.223C5.74979 114.366 5.73376 114.634 5.71338 115.02C5.67971 115.657 5.64612 116.396 5.6148 117.229C5.19572 128.382 5.57208 141.015 7.35652 153.019C10.2505 172.487 16.293 186.083 26.6653 191.154L28.607 187.221C19.9489 182.988 14.4104 170.526 11.7126 152.378C9.97439 140.684 9.60543 128.299 10.0153 117.393C10.0457 116.582 10.0783 115.865 10.1108 115.25C10.1302 114.884 10.145 114.635 10.1532 114.512L5.75925 114.223Z" fill="#1E63AF"/>
<path d="M50.535 133.047C50.2794 133.172 49.8358 133.405 49.2307 133.75C48.2431 134.313 47.1481 134.992 45.9725 135.789C42.6271 138.057 39.2858 140.83 36.1646 144.13C26.0195 154.855 20.5001 168.514 22.095 185.192L26.4788 184.777C25.0126 169.446 30.0444 156.994 39.371 147.133C42.26 144.079 45.3581 141.508 48.4522 139.41C49.5304 138.679 50.5282 138.061 51.4187 137.553C51.9406 137.256 52.3019 137.066 52.4756 136.981L50.535 133.047Z" fill="#1E63AF"/>
<path fill-rule="evenodd" clip-rule="evenodd" d="M51.5052 144.735C61.9121 144.735 70.3489 136.34 70.3489 125.983C70.3489 115.626 61.9121 107.231 51.5052 107.231C41.097 107.231 32.6616 115.626 32.6616 125.983C32.6616 136.34 41.097 144.735 51.5052 144.735Z" fill="#BFD22B"/>
<path fill-rule="evenodd" clip-rule="evenodd" d="M27.6378 62.5058C34.1139 62.5058 39.3604 57.282 39.3604 50.8386C39.3604 44.3939 34.1139 39.17 27.6378 39.17C21.1605 39.17 15.9126 44.3939 15.9126 50.8386C15.9126 57.282 21.1605 62.5058 27.6378 62.5058Z" fill="#EEE824"/>
<path fill-rule="evenodd" clip-rule="evenodd" d="M58.6239 23.3349C65.1 23.3349 70.3492 18.1111 70.3492 11.6677C70.3492 5.223 65.1 -0.000854492 58.6239 -0.000854492C52.1479 -0.000854492 46.8987 5.223 46.8987 11.6677C46.8987 18.1111 52.1479 23.3349 58.6239 23.3349Z" fill="#2CB34A"/>
<path fill-rule="evenodd" clip-rule="evenodd" d="M88.7736 80.8416C95.2483 80.8416 100.497 75.6178 100.497 69.1731C100.497 62.7297 95.2483 57.5059 88.7736 57.5059C82.2962 57.5059 77.0483 62.7297 77.0483 69.1731C77.0483 75.6178 82.2962 80.8416 88.7736 80.8416Z" fill="#F37021"/>
<path fill-rule="evenodd" clip-rule="evenodd" d="M24.287 196.653C30.763 196.653 36.0123 191.429 36.0123 184.984C36.0123 178.541 30.763 173.317 24.287 173.317C17.811 173.317 12.5618 178.541 12.5618 184.984C12.5618 191.429 17.811 196.653 24.287 196.653Z" fill="#8869AE"/>
<path fill-rule="evenodd" clip-rule="evenodd" d="M7.95623 123.066C12.3503 123.066 15.9122 119.522 15.9122 115.149C15.9122 110.776 12.3503 107.233 7.95623 107.233C3.56078 107.233 0.000244141 110.776 0.000244141 115.149C0.000244141 119.522 3.56078 123.066 7.95623 123.066Z" fill="#DB4699"/>
</g>
</svg>
