<?xml version="1.0" encoding="UTF-8"?>
<svg width="93px" height="70px" viewBox="0 0 93 70" version="1.1" xmlns="http://www.w3.org/2000/svg" xmlns:xlink="http://www.w3.org/1999/xlink">
    <!-- Generator: Sketch 47.1 (45422) - http://www.bohemiancoding.com/sketch -->
    <title>ubdc-desktop</title>
    <desc>Created with Sketch.</desc>
    <defs>
        <polygon id="path-1" points="0 69.8766667 92.2995238 69.8766667 92.2995238 0 0 0"></polygon>
    </defs>
    <g id="Symbols" stroke="none" stroke-width="1" fill="none" fill-rule="evenodd">
        <g id="ubdc-desktop">
            <g>
                <path d="M47.6650952,6.26014286 L47.6650952,13.405381 C47.6650952,16.0996667 48.8612857,17.2491905 50.4774762,17.2491905 C52.2555714,17.2491905 53.4155714,16.0634762 53.4155714,13.405381 L53.4155714,6.26014286 L54.949381,6.26014286 L54.949381,13.2977619 C54.949381,17.015381 53.0460476,18.5239524 50.4236667,18.5239524 C47.9455714,18.5239524 46.1312857,17.123 46.1312857,13.3515714 L46.1312857,6.26014286 L47.6650952,6.26014286 Z" id="Fill-1" fill="#000000"></path>
                <path d="M57.3344762,12.2934286 C57.3344762,11.269619 57.316381,10.4772381 57.2625714,9.71057143 L58.6454286,9.71057143 L58.7173333,11.2439048 L58.7711429,11.2439048 C59.166381,10.0939048 60.056381,9.38819048 61.1154286,9.38819048 C61.2773333,9.38819048 61.4668571,9.45485714 61.4668571,9.49057143 L61.4668571,10.9634286 C61.4668571,10.9453333 61.2059048,10.9272381 60.9901905,10.9272381 C59.8768571,10.9272381 59.0697143,11.7715238 58.8535238,12.9386667 C58.8178095,13.172 58.7830476,13.4234286 58.7830476,13.6929524 L58.7830476,18.1448571 L57.316381,18.1448571 L57.3344762,12.2934286 Z" id="Fill-3" fill="#000000"></path>
                <path d="M64.5335714,14.8422381 C64.5335714,15.0398571 64.5259524,15.2374762 64.5621429,15.417 C64.8669048,16.5127143 65.7883333,17.267 66.9197619,17.267 C68.5897619,17.267 69.5530952,15.9198571 69.5530952,13.9265238 C69.5530952,12.1660476 68.6516667,10.6755714 66.9640476,10.6755714 C65.8859524,10.6755714 64.9045238,11.4298571 64.5997619,12.6155714 C64.5454762,12.8127143 64.5335714,13.0284286 64.5335714,13.2798571 L64.5335714,14.8422381 Z M63.0002381,5.49319048 L64.5335714,5.49319048 L64.5335714,10.8608095 L64.5178571,10.8608095 C65.075,10.0936667 66.0802381,9.35842857 67.4811905,9.35842857 C69.6364286,9.35842857 71.145,11.1931905 71.145,13.8155714 C71.145,16.9403333 69.1692857,18.557 67.2297619,18.557 C65.9721429,18.557 64.9845238,18.1450952 64.3207143,16.994619 L64.2845238,16.994619 L64.1945238,18.1450952 L62.8297619,18.1450952 C62.8835714,17.7612857 63.0002381,16.8536667 63.0002381,16.0817619 L63.0002381,5.49319048 Z" id="Fill-5" fill="#000000"></path>
                <path d="M77.5688095,13.8903333 C75.6521429,13.854619 73.8535714,14.1598571 73.8535714,15.8479524 C73.8535714,16.8898571 74.5197619,17.3565238 75.3097619,17.3565238 C76.4588095,17.3565238 77.2207143,16.6384286 77.4716667,15.9017619 C77.5254762,15.7403333 77.5688095,15.5608095 77.5688095,15.3989048 L77.5688095,13.8903333 Z M79.102619,16.2431905 C79.102619,16.9974762 79.082619,17.7612857 79.1721429,18.1450952 L77.7535714,18.1450952 L77.6097619,17.3779524 L77.5559524,17.3779524 C77.0888095,17.7612857 76.1369048,18.5974762 74.8983333,18.5974762 C73.137381,18.5974762 72.2911905,17.3217619 72.2911905,16.0641429 C72.2911905,13.9631905 74.1188095,12.777 77.5688095,12.7950952 L77.5688095,12.6155714 C77.5688095,11.897 77.3202381,10.5860476 75.5416667,10.6041429 C74.7159524,10.6041429 73.8459524,10.8374762 73.235,11.2508095 L72.8630952,10.1908095 C73.5816667,9.7417619 74.662619,9.43652381 75.7583333,9.43652381 C78.4340476,9.43652381 79.102619,11.2508095 79.102619,12.9927143 L79.102619,16.2431905 Z" id="Fill-7" fill="#000000"></path>
                <path d="M81.0193333,11.9867619 C81.0193333,11.0710476 81.1831429,10.4772381 81.1293333,9.71057143 L82.5302857,9.71057143 L82.6198095,11.2439048 L82.656,11.2439048 C83.0869524,10.0939048 84.1355238,9.53247619 85.5726667,9.53247619 C86.776,9.53247619 88.6874286,10.1548571 88.6874286,13.1362857 L88.6874286,18.1448571 L87.153619,18.1448571 L87.153619,13.3158095 C87.153619,11.9148571 86.5655238,10.729619 85.0750476,10.729619 C84.0517143,10.729619 83.2874286,11.4658095 82.9998095,12.3458095 C82.928381,12.5434286 82.936,12.8310476 82.936,13.0824762 L82.936,18.1448571 L81.0193333,18.1448571 L81.0193333,11.9867619 Z" id="Fill-9" fill="#000000"></path>
                <path d="M47.6650952,33.1062857 C48.0484286,33.1600952 48.4498571,33.1781905 49.007,33.1781905 C50.6236667,33.1781905 52.129381,32.5886667 52.129381,30.8281905 C52.129381,29.194381 50.7260476,28.4962857 49.0198571,28.4962857 L47.6650952,28.4962857 L47.6650952,33.1062857 Z M47.6650952,27.3462857 L49.1455714,27.3462857 C50.7798571,27.3462857 51.7498571,26.4548571 51.7498571,25.2872381 C51.7498571,23.8867619 50.6589048,23.3062857 49.0789048,23.3062857 C48.3603333,23.3062857 48.0484286,23.354381 47.6650952,23.4081905 L47.6650952,27.3462857 Z M46.1312857,22.3667619 C46.8984286,22.2048571 47.9260476,22.0972381 49.0036667,22.0972381 C50.5660476,22.0972381 51.5798571,22.3667619 52.3165238,22.9772381 C52.9450952,23.444381 53.2512857,24.1624762 53.2512857,25.114381 C53.2512857,26.3000952 52.649381,27.3234286 51.1155714,27.7724762 L51.1155714,27.8262857 C52.2655714,28.0958095 53.704619,29.0477143 53.704619,30.8434286 C53.704619,31.8853333 53.3374762,32.6753333 52.7089048,33.2681905 C51.8827143,34.0400952 50.5250952,34.399619 48.549381,34.399619 C47.4717619,34.399619 46.514619,34.3277143 46.1312857,34.2558095 L46.1312857,22.3667619 Z" id="Fill-11" fill="#000000"></path>
                <mask id="mask-2" fill="white">
                    <use xlink:href="#path-1"></use>
                </mask>
                <g id="Clip-14"></g>
                <path d="M55.7161905,34.2471429 L57.2495238,34.2471429 L57.2495238,25.4290476 L55.7161905,25.4290476 L55.7161905,34.2471429 Z M56.3109524,23.8957143 C55.7185714,23.8957143 55.3233333,23.4809524 55.3233333,22.9242857 C55.3233333,22.367619 55.7361905,21.9452381 56.3471429,21.9452381 C56.9571429,21.9452381 57.352381,22.3547619 57.352381,22.9114286 C57.352381,23.4680952 56.9571429,23.8957143 56.3285714,23.8957143 L56.3109524,23.8957143 Z" id="Fill-13" fill="#000000" mask="url(#mask-2)"></path>
                <path d="M65.3009048,29.0117143 C65.3009048,28.7602857 65.2685238,28.5264762 65.196619,28.3112381 C64.9094762,27.3774286 64.1480476,26.6231429 62.9804286,26.6231429 C61.4718571,26.6231429 60.3909048,27.898381 60.3909048,29.9274286 C60.3909048,31.6155238 61.269,33.0526667 62.9570952,33.0526667 C63.9447143,33.0526667 64.8385238,32.4417143 65.161381,31.418381 C65.251381,31.1669524 65.3009048,30.8617143 65.3009048,30.5740952 L65.3009048,29.0117143 Z M66.8342381,33.0164762 C66.8342381,35.0279048 66.4304286,36.2317143 65.6042381,37.003619 C64.7418571,37.776 63.5251905,38.0450476 62.4299524,38.0450476 C61.3885238,38.0450476 60.241381,37.793619 59.5409048,37.3269524 L59.9370952,36.1055238 C60.5118571,36.4826667 61.4161429,36.8064762 62.4932857,36.8064762 C64.1094762,36.8064762 65.3009048,35.9617143 65.3009048,33.7531429 L65.3009048,32.7131429 L65.2542381,32.7131429 C64.7875714,33.4802857 63.8356667,34.2117143 62.4885238,34.2117143 C60.3332857,34.2117143 58.789,32.4021905 58.789,29.9774286 C58.789,27.0321905 60.7109048,25.426 62.7218571,25.426 C64.2309048,25.426 65.0385238,26.196 65.4337619,26.9626667 L65.4699524,26.9626667 L65.5242381,25.4293333 L66.9247143,25.4293333 C66.8709048,26.196 66.8342381,26.9102857 66.8342381,27.9698095 L66.8342381,33.0164762 Z" id="Fill-15" fill="#000000" mask="url(#mask-2)"></path>
                <path d="M47.6650952,49.0359048 C48.0484286,49.1078095 48.6660476,49.1078095 49.2760476,49.1078095 C52.6165238,49.1254286 54.4460476,47.2401905 54.4460476,43.971619 C54.4636667,41.0797143 52.824619,39.3020952 49.5198571,39.3020952 C48.7117619,39.3020952 48.0484286,39.3735238 47.6650952,39.4635238 L47.6650952,49.0359048 Z M46.1312857,38.314 C47.2817619,38.1706667 48.2398571,38.0625714 49.4798571,38.0625714 C51.7241429,38.0625714 53.3265238,38.5654286 54.3855714,39.5535238 C55.4812857,40.5411429 56.1117619,41.9597143 56.1117619,43.9173333 C56.1117619,45.8930476 55.4841429,47.5092381 54.3708095,48.6230476 C53.2212857,49.7544762 51.3465238,50.3649524 48.9941429,50.3649524 C47.8622381,50.3649524 46.8984286,50.3292381 46.1312857,50.2211429 L46.1312857,38.314 Z" id="Fill-16" fill="#000000" mask="url(#mask-2)"></path>
                <path d="M62.2335238,45.821381 C60.6997143,45.7851905 58.5720952,46.0904286 58.5720952,47.7785238 C58.5720952,48.8204286 59.264,49.2875714 60.0544762,49.2875714 C61.2035238,49.2875714 61.9254286,48.569 62.1768571,47.8328095 C62.2306667,47.671381 62.2335238,47.491381 62.2335238,47.3294762 L62.2335238,45.821381 Z M63.7673333,48.1737619 C63.7673333,48.9280476 63.8535238,49.5823333 63.9435238,50.349 L62.5244762,50.349 L62.3811429,49.199 L62.3268571,49.199 C61.8601905,49.9656667 60.9082857,50.4732857 59.6692381,50.4732857 C57.9087619,50.4732857 57.0092381,49.2247143 57.0092381,47.9675714 C57.0092381,45.866619 58.7830476,44.7080476 62.2335238,44.7256667 L62.2335238,44.5461429 C62.2335238,43.8275714 62.0378095,42.516619 60.2597143,42.5347143 C59.4335238,42.5347143 58.5906667,42.7680476 57.9797143,43.181381 L57.6211429,42.121381 C58.3392381,41.6728095 59.374,41.3670952 60.4697143,41.3670952 C63.1459048,41.3670952 63.7673333,43.181381 63.7673333,44.9232857 L63.7673333,48.1737619 Z" id="Fill-17" fill="#000000" mask="url(#mask-2)"></path>
                <path d="M67.9840952,39.481619 L67.9840952,41.5311429 L69.9007619,41.5311429 L69.9007619,42.681619 L67.9840952,42.681619 L67.9840952,47.4554286 C67.9840952,48.5330476 68.1998095,49.144 69.0798095,49.144 C69.5102857,49.144 69.7169524,49.1078095 69.9507619,49.0359048 L69.9993333,50.2392381 C69.6945714,50.3468571 69.198381,50.4549524 68.5879048,50.4549524 C67.8512381,50.4549524 67.3488571,50.2035238 66.9712381,49.7901905 C66.5407619,49.3054286 66.4507619,48.5330476 66.4507619,47.5092381 L66.4507619,42.681619 L64.9174286,42.681619 L64.9174286,41.5311429 L66.4507619,41.5311429 L66.4507619,39.966381 L67.9840952,39.481619 Z" id="Fill-18" fill="#000000" mask="url(#mask-2)"></path>
                <path d="M76.035619,45.821381 C74.5018095,45.7851905 72.4494286,46.0904286 72.4494286,47.7785238 C72.4494286,48.8204286 73.1799048,49.2875714 73.9699048,49.2875714 C75.1194286,49.2875714 75.7841905,48.569 76.035619,47.8328095 C76.0894286,47.671381 76.035619,47.491381 76.035619,47.3294762 L76.035619,45.821381 Z M77.9522857,48.1737619 C77.9522857,48.9280476 77.8075238,49.5823333 77.8970476,50.349 L76.4784762,50.349 L76.3346667,49.199 L76.2808571,49.199 C75.8137143,49.9656667 74.8618095,50.4732857 73.6232381,50.4732857 C71.8627619,50.4732857 70.8865714,49.2247143 70.8865714,47.9675714 C70.8865714,45.866619 72.9684762,44.7080476 76.035619,44.7256667 L76.035619,44.5461429 C76.035619,43.8275714 75.915619,42.516619 74.138,42.5347143 C73.3113333,42.5347143 72.5060952,42.7680476 71.8960952,43.181381 L71.5560952,42.121381 C72.2746667,41.6728095 73.4341905,41.3670952 74.5299048,41.3670952 C77.205619,41.3670952 77.9522857,43.181381 77.9522857,44.9232857 L77.9522857,48.1737619 Z" id="Fill-19" fill="#000000" mask="url(#mask-2)"></path>
                <path d="M54.6051905,64.6422857 C54.0485238,64.9294286 52.8809048,65.2170476 51.4085238,65.2170476 C47.9961429,65.2170476 45.4461429,63.0618095 45.4461429,59.0746667 C45.4461429,55.2675238 48.0137619,52.7170476 51.7675714,52.7170476 C53.2585238,52.7170476 54.2280476,53.040381 54.641381,53.255619 L54.2461429,54.5308571 C53.671381,54.2437143 52.8270952,54.028 51.821381,54.028 C48.9837619,54.028 47.0980476,55.8422857 47.0980476,59.0208571 C47.0980476,62.0022857 48.8042381,63.888 51.7318571,63.888 C52.701381,63.888 53.671381,63.6899048 54.2999524,63.3851429 L54.6051905,64.6422857 Z" id="Fill-20" fill="#000000" mask="url(#mask-2)"></path>
                <path d="M61.483,59.933619 C61.5010952,58.783619 61.0701429,57.3655238 59.310619,57.3655238 C57.6939524,57.3655238 57.0110952,58.783619 56.8858571,59.933619 L61.483,59.933619 Z M56.8677619,60.9426667 C56.9034762,63.0793333 58.250619,63.9598095 59.8310952,63.9598095 C60.9620476,63.9598095 61.6625238,63.7621905 62.2372857,63.5288571 L62.5249048,64.6421905 C61.9682381,64.893619 60.9982381,65.1988571 59.615381,65.1988571 C56.9572857,65.1988571 55.3410952,63.4212381 55.3410952,60.8164762 C55.3410952,58.1769524 56.9034762,56.1117143 59.4358571,56.1117143 C62.2734762,56.1117143 63.0096667,58.6079048 63.0096667,60.206 C63.0096667,60.5293333 62.9915714,60.7807619 62.9558571,60.9602857 L56.8677619,60.9426667 Z" id="Fill-21" fill="#000000" mask="url(#mask-2)"></path>
                <path d="M64.5335714,58.6796667 C64.5335714,57.7639524 64.6616667,56.8663333 64.607381,56.4834762 L66.0088095,56.4834762 L66.0983333,57.6334762 L66.1340476,57.6334762 C66.565,56.8663333 67.632619,56.073 69.0688095,56.073 C70.2721429,56.073 72.2016667,56.8477619 72.2016667,59.8291905 L72.2016667,64.9177619 L70.6683333,64.9177619 L70.6683333,60.0087143 C70.6683333,58.6077619 70.0621429,57.4225238 68.5716667,57.4225238 C67.5478571,57.4225238 66.792619,58.1587143 66.5054762,59.0387143 C66.4335714,59.2363333 66.4507143,59.5239524 66.4507143,59.7749048 L66.4507143,64.9177619 L64.5335714,64.9177619 L64.5335714,58.6796667 Z" id="Fill-22" fill="#000000" mask="url(#mask-2)"></path>
                <path d="M76.035619,54.2437619 L76.035619,56.4832857 L78.335619,56.4832857 L78.335619,57.6332857 L76.035619,57.6332857 L76.035619,62.2175714 C76.035619,63.2951905 76.3641905,63.9061429 77.2446667,63.9061429 C77.6751429,63.9061429 77.9384762,63.8699524 78.1718095,63.7980476 L78.2499048,65.001381 C77.9451429,65.109 77.4632381,65.2170952 76.8522857,65.2170952 C76.1160952,65.2170952 75.5065714,64.9656667 75.1294286,64.5523333 C74.698,64.0675714 74.5018095,63.2951905 74.5018095,62.271381 L74.5018095,57.6332857 L73.3513333,57.6332857 L73.3513333,56.4832857 L74.5018095,56.4832857 L74.5018095,54.7285238 L76.035619,54.2437619 Z" id="Fill-23" fill="#000000" mask="url(#mask-2)"></path>
                <path d="M79.7642381,59.0661429 C79.7642381,58.0423333 79.746619,57.2499524 79.6928095,56.4832857 L81.0756667,56.4832857 L81.1470952,58.016619 L81.201381,58.016619 C81.596619,56.866619 82.5809048,56.1209048 83.6409048,56.1209048 C83.8023333,56.1209048 84.0861429,56.1470952 84.0861429,56.1832857 L84.0861429,57.6561429 C83.7028095,57.6380476 83.7304286,57.6199524 83.5147143,57.6199524 C82.4009048,57.6199524 81.641381,58.4637619 81.4261429,59.631381 C81.3899524,59.8651905 81.4028095,60.116619 81.4028095,60.3856667 L81.4028095,64.9175714 L79.746619,64.9175714 L79.7642381,59.0661429 Z" id="Fill-24" fill="#000000" mask="url(#mask-2)"></path>
                <path d="M90.7733333,59.933619 C90.7909524,58.783619 90.36,57.3655238 88.6004762,57.3655238 C86.9838095,57.3655238 86.3014286,58.783619 86.1757143,59.933619 L90.7733333,59.933619 Z M86.157619,60.9426667 C86.1938095,63.0793333 87.5404762,63.9598095 89.1204762,63.9598095 C90.252381,63.9598095 90.9528571,63.7621905 91.527619,63.5288571 L91.8152381,64.6421905 C91.2580952,64.893619 90.287619,65.1988571 88.9057143,65.1988571 C86.247619,65.1988571 84.6314286,63.4212381 84.6314286,60.8164762 C84.6314286,58.1769524 86.1938095,56.1117143 88.7257143,56.1117143 C91.5633333,56.1117143 92.2995238,58.6079048 92.2995238,60.206 C92.2995238,60.5293333 92.2819048,60.7807619 92.2457143,60.9602857 L86.157619,60.9426667 Z" id="Fill-25" fill="#000000" mask="url(#mask-2)"></path>
                <path d="M31.1951429,51.7289048 C32.2318095,51.7289048 33.0718095,50.8884286 33.0718095,49.8517619 C33.0718095,48.8155714 32.2318095,47.974619 31.1951429,47.974619 C30.1584762,47.974619 29.3184762,48.8155714 29.3184762,49.8517619 C29.3184762,50.8884286 30.1584762,51.7289048 31.1951429,51.7289048" id="Fill-26" fill="#00B3DC" mask="url(#mask-2)"></path>
                <path d="M18.2129048,40.1650952 C19.1500572,40.1650952 19.6404201,39.0093365 20.2771228,36.4860188 C20.8146173,34.3558731 21.3165146,31.483426 21.688196,28.2973946 C22.6100894,20.3949769 22.6391918,11.805229 21.5003935,4.03317291 L19.9597017,4.25892233 C21.077248,11.8859375 21.0485995,20.3417189 20.1415421,28.1169625 C19.7773015,31.2392125 19.2869194,34.0457561 18.7673028,36.1050496 C18.5313621,37.0401069 18.2983271,37.781874 18.0900954,38.2726647 C17.9993169,38.4866248 17.9184069,38.6398049 17.8596332,38.7202861 C17.8918854,38.6761218 17.9822466,38.6079524 18.2129048,38.6079524 L18.2129048,40.1650952 Z" id="Stroke-27" fill="#1E63AF" fill-rule="nonzero" mask="url(#mask-2)"></path>
                <path d="M8.99462137,20.445849 C8.9953066,20.4891284 8.9973084,20.5683939 9.00129329,20.6812658 C9.0078329,20.8665001 9.01768945,21.080551 9.03153173,21.3210427 C9.07091363,22.0052525 9.13427372,22.7664666 9.22701006,23.5857467 C9.49222881,25.9288246 9.94020327,28.2732537 10.6164644,30.4695321 C12.4782784,36.5161045 15.7085929,40.3698481 20.6645748,40.7893213 L20.7959014,39.2377263 C16.6218906,38.8844389 13.8003476,35.5183568 12.1046568,30.0112993 C11.4598155,27.9170625 11.0293971,25.6645111 10.7742723,23.4106083 C10.6848884,22.6209453 10.623893,21.8881407 10.5861016,21.2315644 C10.5729332,21.0027811 10.5636063,20.8002306 10.5574666,20.6263258 C10.553844,20.5237142 10.5520969,20.4545355 10.5515691,20.4211986 L8.99462137,20.445849 Z" id="Stroke-28" fill="#1E63AF" fill-rule="nonzero" mask="url(#mask-2)"></path>
                <path d="M30.6128838,26.9378682 C30.6124421,26.9698512 30.6106238,27.0380732 30.6065071,27.1400928 C30.5994872,27.3140622 30.5883272,27.5169875 30.5721095,27.7464229 C30.5254897,28.4059628 30.4476457,29.1425247 30.3313162,29.9364771 C29.9991936,32.203226 29.4267826,34.4685212 28.5592883,36.5744031 C26.071813,42.6128626 21.7320687,46.1354693 14.9789921,46.0116071 L14.9504364,47.5684881 C22.4156714,47.7054124 27.2868912,43.7514026 29.999056,37.1674992 C30.919796,34.9323607 31.5226565,32.5465629 31.8720092,30.1622185 C31.9941961,29.3282883 32.0761071,28.553245 32.1253768,27.856216 C32.1427204,27.6108524 32.1547413,27.3922723 32.1623838,27.202875 C32.1670646,27.0868746 32.1692493,27.0049051 32.1698782,26.9593699 L30.6128838,26.9378682 Z" id="Stroke-29" fill="#1E63AF" fill-rule="nonzero" mask="url(#mask-2)"></path>
                <path d="M2.03654614,40.586887 C2.03320066,40.6375944 2.02753373,40.7328659 2.02032711,40.8699236 C2.00842079,41.0963617 1.9965402,41.3590107 1.98546789,41.6550955 C1.8372759,45.6179004 1.97036075,50.1067287 2.60135899,54.3722052 C3.62470896,61.2899347 5.76140789,66.1207447 9.42917038,67.9226522 L10.115782,66.525062 C7.05418482,65.0209529 5.09571256,60.5930912 4.14173845,54.1443345 C3.52706936,49.9892413 3.39660075,45.5886567 3.5415231,41.7132853 C3.55229652,41.4251932 3.56382205,41.1703937 3.57532186,40.9516866 C3.58215892,40.8216573 3.58741485,40.7332956 3.590311,40.6893987 L2.03654614,40.586887 Z" id="Stroke-30" fill="#1E63AF" fill-rule="nonzero" mask="url(#mask-2)"></path>
                <path d="M17.8698002,47.2755823 C17.7794216,47.3199514 17.6225377,47.4029464 17.4085862,47.5254464 C17.0593503,47.7254051 16.672152,47.9665512 16.2564415,48.2498193 C15.0734654,49.0559078 13.8919259,50.041067 12.7882345,51.2135972 C9.20083119,55.024752 7.24908596,59.8780267 7.8130732,65.8044264 L9.36321252,65.656907 C8.8447675,60.2090668 10.6240731,55.7845864 13.9220815,52.2808765 C14.9436542,51.1955867 16.0391836,50.2821421 17.1332763,49.5366194 C17.5145399,49.2768237 17.8673889,49.0570703 18.182298,48.8767658 C18.3668337,48.771108 18.4945833,48.7035257 18.5560093,48.6733701 L17.8698002,47.2755823 Z" id="Stroke-31" fill="#1E63AF" fill-rule="nonzero" mask="url(#mask-2)"></path>
                <path d="M18.2129048,51.4287143 C21.8929048,51.4287143 24.8762381,48.4458571 24.8762381,44.765381 C24.8762381,41.085381 21.8929048,38.1025238 18.2129048,38.1025238 C14.5324286,38.1025238 11.5495714,41.085381 11.5495714,44.765381 C11.5495714,48.4458571 14.5324286,51.4287143 18.2129048,51.4287143" id="Fill-32" fill="#BFD22B" mask="url(#mask-2)"></path>
                <path d="M9.77309524,22.2101905 C12.0630952,22.2101905 13.9183333,20.354 13.9183333,18.0644762 C13.9183333,15.7744762 12.0630952,13.9182857 9.77309524,13.9182857 C7.48261905,13.9182857 5.62690476,15.7744762 5.62690476,18.0644762 C5.62690476,20.354 7.48261905,22.2101905 9.77309524,22.2101905" id="Fill-33" fill="#EEE824" mask="url(#mask-2)"></path>
                <path d="M20.7300952,8.29161905 C23.0200952,8.29161905 24.8762857,6.43542857 24.8762857,4.14590476 C24.8762857,1.85590476 23.0200952,-0.000285714286 20.7300952,-0.000285714286 C18.4400952,-0.000285714286 16.5839048,1.85590476 16.5839048,4.14590476 C16.5839048,6.43542857 18.4400952,8.29161905 20.7300952,8.29161905" id="Fill-34" fill="#2CB34A" mask="url(#mask-2)"></path>
                <path d="M31.391381,28.7254762 C33.6809048,28.7254762 35.5370952,26.8692857 35.5370952,24.5792857 C35.5370952,22.2897619 33.6809048,20.4335714 31.391381,20.4335714 C29.1009048,20.4335714 27.2451905,22.2897619 27.2451905,24.5792857 C27.2451905,26.8692857 29.1009048,28.7254762 31.391381,28.7254762" id="Fill-35" fill="#F37021" mask="url(#mask-2)"></path>
                <path d="M8.58819048,69.8766667 C10.8781905,69.8766667 12.734381,68.0204762 12.734381,65.7304762 C12.734381,63.4409524 10.8781905,61.5847619 8.58819048,61.5847619 C6.29819048,61.5847619 4.442,63.4409524 4.442,65.7304762 C4.442,68.0204762 6.29819048,69.8766667 8.58819048,69.8766667" id="Fill-36" fill="#8869AE" mask="url(#mask-2)"></path>
                <path d="M2.81342857,43.7291905 C4.3672381,43.7291905 5.6267619,42.4696667 5.6267619,40.9158571 C5.6267619,39.3620476 4.3672381,38.103 2.81342857,38.103 C1.25914286,38.103 9.52380952e-05,39.3620476 9.52380952e-05,40.9158571 C9.52380952e-05,42.4696667 1.25914286,43.7291905 2.81342857,43.7291905" id="Fill-37" fill="#DB4699" mask="url(#mask-2)"></path>
            </g>
        </g>
    </g>
</svg>