<svg width="208" height="64" viewBox="0 0 208 64" fill="none" xmlns="http://www.w3.org/2000/svg">
<g clip-path="url(#clip0_1446_1264)">
<path d="M0.922852 34.4359C0.922852 44.9251 13.8746 56.4792 21.6217 56.8785H21.5951C29.3422 56.4792 42.2939 44.9118 42.2939 34.4359C42.3471 20.2063 42.2939 0.598999 42.2939 0.598999H0.922852V34.4359Z" fill="#003660"/>
<path d="M81.9345 0.598999V1.34442C79.2856 1.38436 78.3272 2.46256 78.3272 4.97837V15.6539C78.3272 20.5524 75.1991 25.8236 66.6134 25.8236C59.066 25.8236 55.1791 21.5108 55.1791 15.8536V4.31281C55.1791 1.78369 54.4736 1.38436 51.7715 1.34442V0.598999H61.9412V1.34442H61.5818C59.4121 1.34442 58.4537 1.94342 58.4537 4.23294V15.228C58.4537 20.5657 61.5818 23.7737 67.4653 23.7737C71.9379 23.7737 76.4903 21.9101 76.4903 15.2013V5.9767C76.4903 2.18303 75.8913 1.50416 72.6167 1.34442V0.598999H81.9079H81.9345Z" fill="#003660"/>
<path d="M86.4072 21.7505C86.4072 23.9202 86.9263 24.4393 89.0561 24.4393V25.1847H81.1094V24.4393C82.8531 24.4393 83.7583 23.4809 83.7583 21.9501V13.644C83.7583 12.1797 83.5986 11.9002 82.5736 11.7005L81.2292 11.421V10.7821L85.7816 9.11818H86.4205V12.2064C89.0694 10.5425 91.2791 9.07825 93.2225 9.07825C95.9114 9.07825 97.4555 11.0483 97.4555 15.0017C97.4555 20.2596 97.1759 21.2846 97.136 22.842C97.0961 23.9069 97.7217 24.426 99.3456 24.426H100.211V25.1714H91.705V24.426C92.8498 24.3861 93.5154 24.1065 93.9546 23.6673C94.7001 22.9085 94.7799 20.02 94.7799 14.7621C94.7799 11.5941 93.2358 10.609 91.6518 10.609C90.3872 10.609 88.4571 11.7139 86.3939 13.1381V21.7238L86.4072 21.7505Z" fill="#003660"/>
<path d="M107.279 22.1897C107.279 23.574 108.024 24.4526 110.127 24.4526V25.198H101.342V24.4526C103.751 24.4526 104.63 23.6539 104.63 21.5641V13.6173C104.63 12.0732 104.43 11.8735 103.405 11.6739L101.541 11.3145V10.6889L106.68 8.90516H107.279V22.1897ZM105.655 0C106.6 0 107.398 0.665557 107.398 1.50416C107.398 2.34276 106.613 3.00832 105.655 3.00832C104.696 3.00832 103.951 2.32945 103.951 1.50416C103.951 0.678869 104.696 0 105.655 0Z" fill="#003660"/>
<path d="M118.181 25.5574L112.444 12.4326C111.845 11.0482 111.339 10.569 110.7 10.4492L109.476 10.2496V9.53076H117.542V10.2496C115.133 10.3294 114.374 10.6356 115.319 12.4991L119.512 22.3494L123.545 13.218C124.264 11.594 123.905 10.4492 121.016 10.2496V9.53076H127.898V10.2496C126.394 10.5291 125.516 11.3943 124.77 13.1381L119.313 25.5574H118.168H118.181Z" fill="#003660"/>
<path d="M130.308 15.1481C130.228 15.7471 130.161 16.2929 130.161 16.812C130.161 20.9252 133.05 23.6939 136.164 23.6939C138.148 23.6939 139.692 22.9085 141.196 21.1248L141.635 21.604C139.971 23.7072 137.482 25.6772 134.594 25.6772C130.72 25.6772 127.712 22.1631 127.712 17.5707C127.712 13.3777 130.521 9.10486 135.339 9.10486C140.677 9.10486 140.557 12.9385 141.862 14.243V15.1481H130.308ZM138.534 14.1232C138.095 11.5541 136.524 9.85028 134.62 9.85028C133.316 9.85028 131.346 10.4493 130.427 14.1232H138.534Z" fill="#003660"/>
<path d="M149.05 22.3095C149.05 23.9335 149.649 24.4526 151.619 24.4526H153.123V25.198H143.752V24.4526C145.775 24.4127 146.401 23.5874 146.401 21.4842V12.3528L143.752 11.3944V10.7288L148.264 9.14478H149.063V13.3378H149.143C151.113 10.0899 151.592 9.34444 152.897 9.34444C153.376 9.34444 153.496 9.38438 154.241 9.70384C154.64 9.86358 155.346 10.0233 156.291 10.2895L155.346 12.6722C154.747 12.5924 154.002 12.3927 153.243 12.0333C152.817 11.8336 152.338 11.6473 151.858 11.6473C151.153 11.6473 150.714 12.1265 150.314 12.6722C149.795 13.3777 149.369 14.0566 149.05 14.6423V22.3095Z" fill="#003660"/>
<path d="M158.513 21.2047C158.979 23.5874 160.483 24.9185 162.267 24.9185C163.851 24.9185 165.076 23.7338 165.076 22.3095C165.076 21.4842 164.876 20.9651 163.811 19.9002C161.002 17.0915 157.874 16.812 157.874 13.5375C157.874 10.9285 159.938 9.10486 162.933 9.10486C163.997 9.10486 165.102 9.34446 166.101 9.74379L166.18 13.3378H165.502C165.222 11.3145 163.918 10.0633 162.334 10.0633C161.029 10.0633 159.924 10.9684 159.924 12.2729C159.924 15.7604 167.272 16.3461 167.272 21.1781C167.272 23.7471 165.129 25.6905 162.373 25.6905C161.628 25.6905 161.069 25.5707 160.63 25.411C160.19 25.2912 159.871 25.1714 159.565 25.1714C159.325 25.1714 159.086 25.3311 158.886 25.6373H158.287L157.848 21.2047H158.487H158.513Z" fill="#003660"/>
<path d="M175.139 22.1897C175.139 23.574 175.884 24.4526 177.988 24.4526V25.198H169.202V24.4526C171.611 24.4526 172.49 23.6539 172.49 21.5641V13.6173C172.49 12.0732 172.29 11.8735 171.265 11.6739L169.402 11.3145V10.6889L174.54 8.90516H175.139V22.1897ZM173.515 0C174.46 0 175.259 0.665557 175.259 1.50416C175.259 2.34276 174.473 3.00832 173.515 3.00832C172.557 3.00832 171.811 2.32945 171.811 1.50416C171.811 0.678869 172.557 0 173.515 0Z" fill="#003660"/>
<path d="M188.344 9.53079L187.705 11.2745H183.445V20.4859C183.445 22.975 185.229 23.8136 186.054 23.8136C186.919 23.8136 187.718 23.1348 188.464 21.8303L189.102 22.4293C188.157 24.4925 186.613 25.6772 184.79 25.6772C182.46 25.6772 180.796 23.7338 180.796 21.0849V11.2745H178.973V10.6356C180.517 9.89019 181.861 8.06656 182.766 5.61731H183.445V9.53079H188.33H188.344Z" fill="#003660"/>
<path d="M203.106 13.9234C204.291 10.9151 203.545 10.3294 201.203 10.2496V9.53076H207.765V10.2496C206.141 10.4492 205.236 11.5541 204.491 13.4176L197.768 30.1897C196.584 33.1181 195.679 34.4226 194.294 34.4226C193.349 34.4226 192.67 33.8236 192.67 33.0382C192.67 31.4143 194.96 31.8136 195.945 30.8286C196.384 30.3893 196.97 29.3644 197.289 28.579L198.474 25.6106L192.351 12.6056C191.592 10.9817 190.887 10.3028 189.223 10.2762V9.55738H197.169V10.2762C194.76 10.3161 194.481 11.0216 195.266 12.6855L199.738 22.3361L203.093 13.9501L203.106 13.9234Z" fill="#003660"/>
<path d="M62.3938 38.5624C63.5386 38.5624 65.9878 40.1464 65.9878 44.3794C65.9878 51.8868 58.507 55.1747 56.6567 55.1747C54.8065 55.1747 53.1426 52.2063 53.1426 48.9185C53.1426 42.5158 60.0244 38.5491 62.3938 38.5491V38.5624ZM60.3705 40.0266C57.8813 40.0266 55.6584 44.8053 55.6584 48.772C55.6584 52.0865 57.0827 53.7105 58.4271 53.7105C61.5952 53.7105 63.4454 48.5724 63.4454 44.9251C63.4454 42.1564 62.101 40.0266 60.3572 40.0266H60.3705Z" fill="#003660"/>
<path d="M67.3986 40.3461L67.5184 39.6007C68.4635 39.4809 69.4219 39.3212 70.407 39.0816C71.006 35.8336 72.1906 32.4393 74.4003 30.2296C75.7847 28.8453 77.5284 28.0999 79.0725 28.0999C80.6166 28.0999 81.8812 28.9651 81.8812 30.0033C81.8812 30.629 81.402 31.1481 80.7763 31.1481C79.4718 31.1481 78.4069 29.5241 77.2622 29.5241C75.7181 29.5241 74.4535 31.2679 73.8945 33.8769L72.8296 39.0549H76.2239L75.8246 40.3594H72.5767L70.5667 51.9135C69.0226 60.7787 64.5101 63.9335 60.7963 63.9335C59.1324 63.9335 57.748 63.1082 57.748 62.1098C57.748 61.4709 58.387 60.9251 59.0525 60.9251C60.5168 60.9251 61.3021 62.6689 62.8063 62.6689C63.7114 62.6689 64.5101 62.2296 65.2156 61.5241C67.1857 59.5408 67.9444 52.792 68.1041 51.8336L70.1274 40.3594H67.3986V40.3461Z" fill="#003660"/>
<path d="M105.175 52.8453C101.262 54.8686 96.2436 55.3345 94.5797 55.3345C85.9141 55.3345 81.8809 48.6523 81.8809 42.8753C81.8809 37.0982 86.0339 29.5109 95.6845 29.5109C99.9175 29.5109 102.726 30.8553 103.551 30.8553C103.911 30.8553 104.23 30.7754 104.457 30.5758H105.016V36.9784H104.23C103.152 32.04 99.7977 30.4959 96.1238 30.4959C89.1621 30.4959 85.608 36.2729 85.608 42.6357C85.608 50.7421 91.3052 54.3362 95.8576 54.3362C97.6812 54.3362 99.6912 53.9368 101.914 52.832V47.8536C101.914 45.604 101.129 44.8453 98.7461 44.8453H97.2819V44.1398H107.957V44.8453C105.987 44.9651 105.189 45.644 105.189 47.3345V52.832L105.175 52.8453Z" fill="#003660"/>
<path d="M113.894 51.5807C113.894 53.2047 114.653 53.9501 116.184 53.9501H116.863V54.7088H107.971V53.9501C110.5 53.9501 111.245 53.2047 111.245 51.3012V32.1997C111.245 31.0815 111.125 30.7355 110.021 30.6157L108.237 30.416V29.7504L113.295 28.1265H113.881V51.5807H113.894Z" fill="#003660"/>
<path d="M118.807 43.7537C118.727 43.5141 118.687 43.3943 118.687 43.1946C118.687 41.8103 121.975 38.6023 124.544 38.6023C125.728 38.6023 127.592 39.1614 128.697 40.7055C129.296 41.5307 129.296 42.0499 129.296 44.0998V49.3976C129.296 52.5657 129.296 53.2712 130.321 53.2712C130.747 53.2712 131.266 53.2312 132.251 52.406L132.451 53.005C130.321 54.7487 129.203 55.1747 128.537 55.1747C126.913 55.1747 126.753 53.391 126.713 52.7654C123.985 55.0149 123.199 55.1747 122.121 55.1747C119.832 55.1747 118.447 53.8702 118.447 51.9268C118.447 49.5174 120.577 48.6788 123.119 48.0532C123.945 47.8535 125.249 47.3743 126.634 46.5491V43.4209C126.634 42.3161 126.634 41.6772 125.955 40.8918C125.449 40.2529 124.61 39.7471 123.745 39.7471C122.441 39.7471 121.296 40.8519 121.296 41.6772C121.296 41.9168 121.336 42.0765 121.496 42.4359L118.807 43.7404V43.7537ZM126.634 47.3477C125.888 47.787 125.249 48.0665 124.304 48.4525C121.895 49.4376 120.976 49.8369 120.976 51.4609C120.976 52.8852 122.121 53.7903 123.306 53.7903C123.931 53.7903 124.411 53.5906 126.634 52.0466V47.3344V47.3477Z" fill="#003660"/>
<path d="M134.394 50.7021C134.873 53.0715 136.378 54.4292 138.161 54.4292C139.745 54.4292 140.97 53.2312 140.97 51.8203C140.97 50.9817 140.77 50.4758 139.705 49.3976C136.897 46.589 133.769 46.3095 133.769 43.0349C133.769 40.4259 135.818 38.6023 138.827 38.6023C139.892 38.6023 140.997 38.8419 141.995 39.2412L142.075 42.8352H141.409C141.13 40.8119 139.825 39.5474 138.241 39.5474C136.937 39.5474 135.832 40.4525 135.832 41.757C135.832 45.2312 143.193 45.8302 143.193 50.6622C143.193 53.2312 141.063 55.1747 138.294 55.1747C137.549 55.1747 136.99 55.0549 136.551 54.8951C136.125 54.7753 135.805 54.6555 135.486 54.6555C135.246 54.6555 135.02 54.8153 134.82 55.1347H134.221L133.795 50.7021H134.421H134.394Z" fill="#003660"/>
<path d="M162.161 42.2895C161.562 42.2496 159.711 42.0898 158.207 41.8103C158.447 42.2496 158.873 43.0748 158.873 44.3394C158.873 47.2679 156.344 50.0765 151.951 50.0765C151.206 50.0765 150.846 49.9966 150.127 49.757C149.502 50.4359 147.718 50.8619 147.718 51.767C147.718 52.7654 149.422 53.1514 153.375 53.1913C157.848 53.2313 159.392 53.4309 160.577 54.6156C161.522 55.5607 161.761 56.5457 161.761 57.3843C161.761 59.9534 158.287 63.9068 150.966 63.9068C146.853 63.9068 144.883 62.0832 144.883 60.153C144.883 57.8635 147.292 57.5041 149.116 55.2945C146.986 55.0948 145.362 53.7504 145.362 52.4858C145.362 50.6622 148.011 50.5823 149.395 49.5574C146.986 48.6123 145.602 46.9085 145.602 44.6456C145.602 41.2379 148.65 38.589 152.563 38.589C154.387 38.589 155.931 39.1481 156.996 40.173C158.766 40.173 160.43 39.9733 162.174 39.7737V42.2629L162.161 42.2895ZM153.176 62.8153C156.543 62.8153 159.698 60.6056 159.698 58.1031C159.698 56.6389 158.473 55.8935 157.049 55.7737C156.024 55.6539 151.046 55.6139 149.888 55.4542C148.783 56.7587 147.319 57.3178 147.319 58.8486C147.319 60.7121 149.928 62.802 153.176 62.802V62.8153ZM152.071 39.361C150.567 39.361 148.237 40.1863 148.237 43.8735C148.237 46.203 149.422 49.3311 152.43 49.3311C154.72 49.3311 156.224 47.4276 156.224 44.6988C156.224 41.3045 154.48 39.361 152.071 39.361Z" fill="#003660"/>
<path d="M171.505 38.6023C176.337 38.6023 180.011 42.1963 180.011 46.9085C180.011 51.6206 176.337 55.1747 171.625 55.1747C166.912 55.1747 162.959 51.6206 162.959 46.9883C162.959 41.5307 167.392 38.6023 171.505 38.6023ZM172.064 54.2296C174.393 54.2296 177.042 51.8602 177.042 47.9068C177.042 43.3943 174.273 39.5607 170.959 39.5607C168.35 39.5607 165.941 42.2495 165.941 45.6572C165.941 50.4492 168.669 54.2429 172.077 54.2429L172.064 54.2296Z" fill="#003660"/>
<path d="M198.367 55.0549L193.655 43.9002L188.903 55.0549H187.798L181.901 41.7571C181.355 40.5325 180.796 39.9335 178.973 39.7471V39.0283H186.64V39.7471C184.31 39.8669 184.151 40.5325 184.976 42.396L189.249 51.9268L193.122 42.7554C192.257 40.7455 191.578 40.0267 190.194 39.8669L189.249 39.7471V39.0283H197.435V39.7471C195.492 39.7871 194.906 40.3727 195.731 42.3561L199.605 51.7671L203.399 42.5158C204.264 40.4127 203.598 39.7471 201.109 39.7471V39.0283H207.751V39.7471C206.247 39.9069 205.302 40.6523 204.503 42.5957L199.405 55.0549H198.34H198.367Z" fill="#003660"/>
<path d="M22.6332 14.8552H21.3154V51.3011H22.6332V14.8552Z" fill="#9ADBF9"/>
<path d="M30.0606 27.4076H36.5565C38.4733 27.4076 38.6463 27.6739 38.7794 28.0865C38.6996 27.4476 38.2869 24.173 37.9941 21.8036C37.9142 21.1913 37.7012 19.4875 36.8493 18.4759C36.5831 18.1564 36.45 17.9833 35.8643 17.7437C35.9042 17.6106 36.4367 16.2928 36.836 15.2279C37.0357 14.6822 36.8227 14.1364 36.4101 13.8835C36.0507 13.6705 35.5848 13.6572 35.252 13.6572C33.029 13.6572 31.3119 13.6572 30.6197 13.6572C29.435 13.6572 28.8759 14.416 29.2353 15.3211C29.5149 16.0133 29.9675 17.198 30.1804 17.7304C28.7162 18.2229 28.237 20.2196 28.024 21.9501C27.6646 24.8652 27.1987 28.7521 27.1588 28.9917C27.1056 29.3644 27.039 29.6705 27.6513 29.6972C28.8094 29.777 30.1538 29.777 32.4167 29.7238C32.6297 29.8436 32.9225 29.9234 33.2952 29.9101C33.668 29.9101 33.9342 29.8036 34.1205 29.6705C35.0523 29.6439 36.1039 29.5907 37.3019 29.5507C36.2503 29.5241 35.252 29.4975 34.3335 29.4709C34.6663 29.0582 34.6264 28.4992 34.5997 28.3927C34.4666 29.9101 32.4833 29.7637 32.9758 28.1531C32.7628 28.1531 32.217 28.1531 31.8576 28.4326C31.7645 28.6722 31.7911 29.0582 32.0174 29.391C30.7395 29.3378 29.6746 29.2845 28.9159 29.2446C28.5299 29.2313 28.3302 28.9384 28.5299 28.6855C29.3551 27.6073 29.4084 27.4076 30.034 27.4076M30.633 14.6289C31.8044 14.6289 33.7079 14.6289 34.9325 14.6289C35.3185 14.6289 35.9442 14.5091 35.5848 15.3611C35.2786 16.1065 34.826 17.1447 34.6264 17.5973C33.9741 17.5973 31.3385 17.5973 31.3385 17.5973C31.1255 17.1048 30.8327 16.4126 30.4467 15.5341C30.247 15.0682 30.1405 14.6423 30.6197 14.6423L30.633 14.6289Z" fill="#FFCF37"/>
<path d="M21.6617 51.1415C21.6617 51.5674 21.3821 51.9135 21.0227 51.9135C20.6633 51.9135 20.3838 51.5674 20.3838 51.1415V47.5208C20.3838 47.0949 20.6766 46.7488 21.0227 46.7488C21.3688 46.7488 21.6617 47.0949 21.6617 47.5208V51.1415Z" fill="white"/>
<path d="M12.7434 8.19961C12.9431 8.11974 13.2359 8.13305 13.5155 8.13305C13.2226 7.88014 12.9431 7.78696 12.7834 7.74703C12.3973 6.29611 10.3075 6.69545 10.0945 7.97332C10.0146 8.43921 8.37737 8.63887 6.48719 11.1547C5.62197 12.3128 4.42396 13.3111 4.05125 13.5507C3.69185 13.777 4.57039 13.7104 4.98303 13.2712C5.36906 13.6572 6.12779 12.4858 7.27255 12.2994C7.57871 12.2462 11.3724 11.5673 10.3607 9.39761C11.6918 11.1147 9.46889 12.3527 8.07122 12.4858C8.19102 12.5524 8.92313 12.6056 9.003 12.6455C9.21598 12.7254 8.93644 12.9783 9.10949 13.0715C9.52213 13.2978 10.3341 14.0565 10.3341 14.0565C10.3341 14.0565 10.8 13.8968 10.587 13.6971C9.9614 13.2845 9.78836 13.1647 9.62862 12.8984C9.62862 12.8851 9.41564 12.4991 9.82829 12.3926C10.4273 12.3394 12.3707 11.6605 12.0379 9.21125C11.9847 8.82523 12.2509 8.41258 12.7301 8.19961" fill="#E2A035"/>
<path d="M12.4648 7.80076C12.4648 7.9341 12.3714 8.02743 12.2514 8.02743C12.1314 8.02743 12.0381 7.92076 12.0381 7.80076C12.0381 7.68076 12.1314 7.5741 12.2514 7.5741C12.3714 7.5741 12.4648 7.68076 12.4648 7.80076Z" fill="#003660"/>
<path d="M22.9526 46.6156H22.2471V51.7404H22.9526V46.6156Z" fill="white"/>
<path d="M23.5781 52.5391C23.7911 52.3261 23.9109 52.0199 23.9109 51.7004C23.9109 51.0349 23.3651 50.4891 22.6996 50.4891H20.623C19.9442 50.4891 19.3984 51.0349 19.3984 51.7004C19.3984 52.0199 19.5182 52.2995 19.7179 52.5124C19.465 52.7387 19.0257 53.1647 18.8926 53.3111C20.2902 53.9234 22.9259 53.8702 24.4167 53.3111C24.2836 53.1913 23.8044 52.752 23.5781 52.5391Z" fill="#FFCF37"/>
<path d="M21.6215 10.5158C20.7163 9.71718 17.8278 9.37109 15.9775 9.83698C16.0973 10.0633 16.2438 10.7821 16.3236 11.0749C19.0657 10.1564 21.6215 11.5009 21.6215 11.5009C21.6215 11.5009 21.6215 11.4876 21.6215 11.4742V11.5009C21.6215 11.5009 24.1772 10.1698 26.9193 11.0882C26.9992 10.7954 27.1456 10.0766 27.2654 9.8636C25.4018 9.3844 22.5133 9.73049 21.6215 10.5292" fill="#9ADBF9"/>
<path d="M22.8726 14.8552H22.46V43.0882H22.8726V14.8552Z" fill="white"/>
<path d="M21.702 14.8552H20.3975V41.0516H21.702V14.8552Z" fill="white"/>
<path d="M22.953 24.9451C23.0329 24.639 23.0728 23.8802 22.953 23.6406C22.3407 23.6406 21.3823 23.6406 20.8232 23.6406C22.1011 24.1065 22.953 24.9451 22.953 24.9451Z" fill="#003660"/>
<path d="M18.374 48.2662C19.1061 48.3727 23.0329 48.5591 23.0329 48.5591L23.6719 50.223C23.6719 50.223 20.2376 50.1298 18.374 48.2662Z" fill="#003660"/>
<path d="M34.4532 36.3128C33.2286 35.5141 31.7377 36.1264 30.1138 34.7687C30.1138 38.975 33.1886 39.8136 31.4582 40.945C29.9274 41.9434 28.4365 42.1963 26.8925 42.0765C27.0256 41.8635 27.2519 41.4775 27.4382 41.2911C25.548 41.0515 23.8974 41.1846 23.2053 41.2645C20.8492 40.5723 18.2269 39.6938 15.0855 39.6539C15.6578 40.1198 16.2169 40.9317 16.2169 42.3161C15.7377 40.4392 13.781 39.4542 12.8226 39.0815C12.5297 38.975 12.2635 38.9218 11.984 38.8818C11.8375 39.0682 11.5447 39.401 11.0256 39.5873C10.7327 39.4276 10.4931 39.7071 10.5331 39.8003C10.5464 39.8402 10.5331 39.8935 10.5064 39.9334C10.2269 40.2928 9.30843 40.1198 8.61625 39.8802C7.83089 39.6006 7.85751 40.1464 8.00394 40.4259C8.25685 40.8652 8.49645 41.1447 8.60294 41.3976C9.65452 43.5407 10.4399 44.9517 12.7693 46.2828C14.979 47.9201 17.7743 48.7587 20.5963 48.8519C21.6346 49.2246 24.0039 49.8768 26.9856 49.3976C26.4133 49.0116 25.8276 48.6256 25.6412 48.2396C29.4216 47.148 32.6961 44.6589 34.0272 40.9051C34.0405 40.8652 34.0539 40.8252 34.0672 40.7853C34.3068 39.96 33.5081 38.8685 32.3766 39.9467C33.3617 37.5906 34.9723 38.6156 34.6262 40C35.9174 38.2562 37.6479 36.3926 39.9507 35.6738C37.8475 34.7021 35.771 35.5407 34.4133 36.2995" fill="#9ADBF9"/>
<path d="M23.0061 32.6523C23.0993 32.3461 23.1259 31.5874 23.0061 31.3478C22.3938 31.3478 21.4354 31.3478 20.8896 31.3478C22.1542 31.8137 23.0061 32.6523 23.0061 32.6523Z" fill="#003660"/>
<path d="M23.8984 30.1764C23.8984 30.8553 23.3393 31.401 22.6604 31.401H20.5573C19.8784 31.401 19.3193 30.8553 19.3193 30.1764C19.3193 29.4975 19.8784 28.9651 20.5573 28.9651H22.6604C23.3393 28.9651 23.8984 29.5108 23.8984 30.1764Z" fill="#FFCF37"/>
<path d="M22.6196 30.975C21.3817 30.975 20.3301 30.975 20.3301 30.975C20.3301 30.975 22.0605 30.8685 23.1654 29.6971C23.4582 29.8835 23.5114 30.975 22.6196 30.975Z" fill="#E2A035"/>
<path d="M23.0198 40.4659C23.0997 40.1597 23.1396 39.401 23.0198 39.1614C22.4075 39.1614 21.4491 39.1614 20.9033 39.1614C22.1812 39.6273 23.0198 40.4792 23.0198 40.4792" fill="#003660"/>
<path d="M23.9111 37.9501C23.9111 38.629 23.352 39.1747 22.6731 39.1747H20.57C19.8911 39.1747 19.332 38.629 19.332 37.9501C19.332 37.2712 19.8778 36.7388 20.57 36.7388H22.6731C23.352 36.7388 23.9111 37.2712 23.9111 37.9501Z" fill="#FFCF37"/>
<path d="M22.6333 38.762C21.3953 38.762 20.3438 38.762 20.3438 38.762C20.3438 38.762 22.0742 38.6688 23.179 37.4841C23.4719 37.6838 23.5251 38.762 22.6333 38.762Z" fill="#E2A035"/>
<path d="M23.4853 16.8386H19.7715V20.4859H23.4853V16.8386Z" fill="#FFCF37"/>
<path d="M23.4716 20.4725C22.846 20.619 22.8859 21.1514 22.8593 21.3511C22.8593 21.3511 21.3685 21.3511 20.3834 21.3511C20.3834 21.2978 20.4101 20.5657 19.7578 20.4725C19.7578 20.4725 23.232 20.4725 23.4716 20.4725Z" fill="#E2A035"/>
<path d="M22.9394 16.8386H21.9277V20.5258H22.9394V16.8386Z" fill="#E2A035"/>
<path d="M9.97476 37.0316C9.58873 37.2046 9.25595 37.564 9.08291 38.0166C8.90986 38.4692 8.90986 38.9617 9.08291 39.3477C9.20271 39.6273 9.429 39.8402 9.69522 39.9467C9.96144 40.0532 10.2676 40.0266 10.5471 39.9068C10.9332 39.7337 11.2659 39.3743 11.439 38.9218C11.7584 38.0965 11.4789 37.2313 10.84 36.9783C10.5738 36.8719 10.2676 36.8852 9.97476 37.0183M9.85496 39.4808C9.6686 39.4143 9.56211 39.2545 9.52218 39.1347C9.40238 38.8685 9.40238 38.5091 9.53549 38.1763C9.6686 37.8436 9.89489 37.5773 10.1744 37.4575C10.2942 37.4043 10.4673 37.3644 10.6536 37.4309C10.9332 37.5374 11.0796 37.8436 11.0796 38.2163C11.0796 38.3893 11.053 38.5624 10.9731 38.7354C10.84 39.0682 10.6137 39.3344 10.3342 39.4542C10.2144 39.5075 10.0413 39.5474 9.84164 39.4808H9.85496Z" fill="#FFCF37"/>
<path d="M10.5202 39.3744C10.3072 39.3078 9.80135 39.1614 9.17573 39.1348C8.73646 39.1215 8.3105 38.8686 8.33712 38.7355C8.36375 38.6423 8.47023 38.589 8.65659 38.5624C9.08255 38.5092 10.001 38.5624 10.9994 38.7088C10.9195 38.9484 10.7864 39.1747 10.5202 39.3611" fill="#9ADBF9"/>
<path d="M12.0908 9.77039C12.0775 11.6206 10.6532 12.2063 10.2539 12.3128C10.387 11.9002 10.9727 9.98336 12.0908 9.77039Z" fill="#EF412D"/>
<path d="M23.9247 22.4293C23.9247 23.1082 23.379 23.654 22.6868 23.654H20.5836C19.9048 23.654 19.3457 23.1082 19.3457 22.4293C19.3457 21.7505 19.8915 21.218 20.5836 21.218H22.6868C23.379 21.218 23.9247 21.7638 23.9247 22.4293Z" fill="#FFCF37"/>
<path d="M22.6596 23.2412C21.4217 23.2546 20.3701 23.2412 20.3701 23.2412C20.3701 23.2412 22.1006 23.1348 23.2054 21.9634C23.4982 22.163 23.5515 23.2412 22.6596 23.2412Z" fill="#E2A035"/>
<path d="M14.4338 40.1065C15.7782 40.9984 16.2175 42.3162 16.2175 42.3162C16.2175 42.3162 16.6568 41.2113 16.0578 40.3594C17.2691 40 19.3856 40.5591 21.3024 41.3045C24.0977 42.396 26.2009 42.7688 28.3307 42.396C30.4604 42.0366 31.5786 41.5841 32.2708 40.5325C32.6302 39.9601 33.7084 40.0799 33.4155 40.9318C33.1094 41.7837 31.7916 44.2197 29.2891 44.8985C26.7866 45.5641 22.6734 46.6822 16.5769 45.1648C14.9396 44.7521 11.1193 43.7405 9.54863 41.7305C9.22916 41.3311 9.14929 40.5724 9.13598 40.4526C9.12267 40.3062 9.21585 40.2263 9.56194 40.2929C10.6401 40.4792 10.8398 40.0666 11.2391 39.614C11.6784 39.5608 13.2225 39.2812 14.4471 40.0932" fill="white"/>
<path d="M32.9499 40.772C31.0863 44.3128 27.479 44.8585 23.7119 44.9783C22.1811 45.0183 20.6504 44.8319 19.3459 44.4991C20.4507 44.6056 21.5955 44.5257 22.3009 44.2861C22.0214 42.8619 19.5988 41.8369 17.9083 41.7437C17.5888 41.3843 17.4956 40.9051 16.7236 40.6256C17.2693 41.1314 17.2294 41.8369 17.4956 42.1963C18.88 42.4758 20.5705 42.8352 21.3825 43.9134C21.0896 44.2861 18.5871 44.0732 17.2294 43.767C16.6437 43.554 16.0314 43.1946 15.6986 42.5557C15.0464 43.2878 14.0081 43.0216 12.9432 42.4891C12.9299 42.0765 12.677 41.7171 12.1179 41.6106C12.2377 41.797 12.2643 41.9833 12.2643 42.1297C11.0663 41.4376 9.92158 40.5856 9.33589 40.6389C8.52391 40.7054 11.1196 45.2579 13.3159 45.7504C19.8384 49.5041 30.7269 47.8535 33.3093 41.5174C33.6687 40.599 33.3492 40.0133 32.9365 40.7853L32.9499 40.772Z" fill="#009AD7"/>
<path d="M12.3702 42.0632C12.4102 42.4626 12.0907 42.822 11.678 42.8619C11.2521 42.9151 10.8794 42.6223 10.8394 42.223C10.7995 41.8236 11.1057 41.4642 11.5316 41.4243C11.9576 41.3844 12.3303 41.6772 12.3702 42.0765" fill="white"/>
<path d="M11.9992 42.1437C11.9992 42.3437 11.8126 42.4904 11.5992 42.4904C11.3859 42.4904 11.1992 42.3304 11.1992 42.1437C11.1992 41.957 11.3859 41.7837 11.5992 41.7837C11.8126 41.7837 11.9992 41.9437 11.9992 42.1437Z" fill="#003660"/>
<path d="M30.6737 35.6472C30.2211 37.1913 32.1379 39.2678 32.1379 39.2678C32.1379 39.2678 31.2727 36.5657 30.6737 35.6472Z" fill="white"/>
<path d="M32.0175 35.98C31.3653 36.8851 32.5899 38.9351 32.5899 38.9351C32.5899 38.9351 32.5233 37.2845 32.0175 35.98Z" fill="white"/>
<path d="M34.0805 38.3227C34.5996 37.1913 35.6379 36.0732 36.7427 35.6738C34.4532 35.9534 33.9341 37.4708 34.0805 38.3227Z" fill="white"/>
<path d="M21.6219 4.12646C20.6502 2.2629 19.2791 3.7005 16.8565 2.95508C16.4305 4.93844 16.0046 8.46589 15.8848 9.07821C17.5353 9.57072 18.9863 8.02663 20.9563 9.31781C20.7433 6.76207 21.5686 4.64559 21.5686 4.64559C21.5686 4.64559 21.5952 4.33944 21.6219 4.13977" fill="white"/>
<path d="M21.6213 4.11312C21.435 3.78034 21.2486 3.50081 20.9291 3.31445C20.6496 6.34939 20.5697 7.01495 19.6113 8.79865C20.2103 8.87851 20.6496 9.09149 20.9558 9.31778C20.7428 6.76204 21.6213 4.75206 21.6213 4.75206C21.6213 4.75206 21.6213 4.21961 21.6213 4.11312Z" fill="#9ADBF9"/>
<path d="M26.3875 2.94177C23.9648 3.6872 22.5938 2.24959 21.6221 4.12646C21.6221 4.7654 21.6221 9.47755 21.6221 9.83695C23.9382 7.66723 25.5355 9.62397 27.3592 9.07821C27.2394 8.4659 26.8134 4.93844 26.3875 2.95508" fill="white"/>
<path d="M22.3005 13.2979H20.9561V14.8553H22.3005V13.2979Z" fill="#FFCF37"/>
<path d="M21.6346 11.7937L22.3001 12.9651L20.9424 12.9784L21.6346 11.7937Z" fill="#FFCF37"/>
<path d="M15.7381 24.0665C15.7381 24.0665 17.5884 23.1614 17.7614 22.2163C17.189 21.6705 15.7514 21.604 15.7514 21.604C15.7514 21.604 17.402 20.3394 17.3354 19.4342C16.5102 19.0482 15.0326 19.2745 15.0326 19.2745C15.7115 18.3294 15.9112 17.584 15.8845 16.9184C15.0193 16.772 13.7015 17.2912 13.7015 17.2912C13.7015 17.2912 14.1408 15.7071 13.7015 14.8818C12.9028 14.6689 11.7847 16.0665 11.7847 16.0665C11.7847 16.0665 11.3854 14.3361 10.4536 13.4043C9.5218 14.3228 9.10916 16.0665 9.10916 16.0665C9.10916 16.0665 7.99102 14.6689 7.19235 14.8818C6.7664 15.7071 7.19235 17.2912 7.19235 17.2912C7.19235 17.2912 5.86124 16.7853 4.99601 16.9184C4.96939 17.584 5.16906 18.3294 5.84793 19.2745C5.84793 19.2745 4.37039 19.0482 3.5451 19.4342C3.47854 20.3527 5.12912 21.604 5.12912 21.604C5.12912 21.604 3.69152 21.6705 3.11914 22.2163C3.3055 23.1481 5.14244 24.0665 5.14244 24.0665C5.14244 24.0665 4.03761 24.2928 3.37205 25.0516C3.79801 25.6239 4.75641 26.1564 5.51515 26.2895C4.8629 26.8086 4.5035 27.2213 4.34377 27.5274C5.39535 28.3793 7.61831 28.4991 9.82796 27.807C9.82796 28.2329 9.82796 31.6406 9.32214 33.2113H11.5584C11.0393 31.6406 11.0526 28.2329 11.0526 27.807C13.2622 28.4991 15.4852 28.3793 16.5368 27.5274C16.377 27.2213 16.0043 26.8086 15.3654 26.2895C16.1108 26.1697 17.0692 25.6239 17.5085 25.0516C16.8429 24.2928 15.7381 24.0665 15.7381 24.0665Z" fill="#80C342"/>
<path d="M13.7152 24.1331C13.9282 24.0133 14.993 23.6938 15.5388 22.7354C14.993 22.203 13.7152 22.1897 13.7152 22.1897C13.7152 22.1897 14.8466 21.4443 15.2326 20.3128C14.2609 20.0333 13.236 20.3128 13.236 20.3128C13.236 20.3128 14.0613 19.1281 14.1678 18.1431C13.236 18.2496 12.2376 18.7421 12.2376 18.7421C12.5172 18.1298 12.6636 17.2645 12.5438 16.5058C12.0779 16.599 11.6519 17.1314 11.399 17.4642C11.1594 16.7055 10.7601 16.4659 10.4806 16.3195C10.028 16.985 9.93481 17.4243 9.98805 18.3428C10.1478 18.1963 10.3874 17.9434 10.7867 17.7171C11.0263 19.0216 10.5604 19.98 10.5604 19.98C10.5604 19.98 11.1328 19.6073 11.9049 19.5141C11.9315 20.2329 11.6786 20.9784 10.9065 21.8702C10.9065 21.8702 11.5721 21.4709 12.3441 21.4043C12.2243 22.416 11.5987 23.0948 10.9598 23.6805C11.3857 23.4809 12.1178 23.4942 12.6237 23.6672C12.3574 24.4393 11.7584 24.8253 10.8799 25.3045C11.4257 25.3045 11.9847 25.371 12.3042 25.584C11.9448 26.2496 11.0929 26.5557 10.4939 26.7288C11.8782 27.2612 13.2094 27.4742 14.5272 27.1547C14.434 26.7687 13.9415 26.2895 13.3558 25.9567C13.8882 25.8369 14.6736 25.6772 15.3658 25.0782C14.9132 24.6256 14.3674 24.3328 13.7019 24.1464" fill="#00984C"/>
<path d="M6.31393 53.9235C6.6334 54.975 5.7948 56.9983 6.38049 58.1564C5.87467 58.1431 2.65337 58.7288 2.17417 58.3161C1.70828 57.9035 0.443717 57.0117 1.70828 56.3195C2.95952 55.6406 6.14089 54.416 6.31393 53.9235Z" fill="#9ADBF9"/>
<path d="M37.0895 53.817C37.4622 57.1714 36.8898 57.5441 36.9297 58.5025C37.2492 58.5824 39.805 59.1149 40.7101 58.6357C41.6153 58.1431 42.2409 56.9584 41.8282 56.4792C41.4156 55.9867 39.3258 54.6689 38.4871 54.5225C37.6485 54.3761 37.3158 54.0699 37.0895 53.817Z" fill="#9ADBF9"/>
<path d="M41.0959 55.4277C39.6982 54.6822 37.635 54.2297 36.4636 52.6323C36.0243 54.243 37.0892 55.1615 37.0493 57.5308C38.0343 55.6939 37.2224 55.2413 37.3954 54.3628C38.1941 55.3744 39.3788 55.5208 40.204 55.9468C41.2689 56.5059 41.9079 57.7305 39.7248 57.7172C35.4387 57.7172 7.96445 57.7172 3.58508 57.7172C1.32219 57.7172 1.98774 56.5059 3.03932 55.9468C3.86462 55.5075 5.07593 55.3744 5.86129 54.3362C6.02102 55.2014 5.20904 55.654 6.19407 57.4909C6.15413 55.1215 7.20571 54.243 6.77976 52.619C5.60838 54.2164 3.50521 54.6689 2.12085 55.4144C0.922852 56.0533 0.922852 56.4793 0.922852 58.5159C0.922852 59.8736 0.922852 61.5907 0.922852 62.7488C0.922852 63.5608 1.85463 64.04 2.97277 64.0001H40.2307C41.3488 64.0267 42.3072 63.5608 42.3072 62.7621C42.3072 61.604 42.3072 59.8736 42.3072 58.5025C42.3205 56.4127 42.2806 56.0666 41.0959 55.4277Z" fill="#003660"/>
<path d="M2.99902 59.4875H3.79769L4.35676 61.0316C4.35676 61.0316 4.39669 61.1914 4.44994 61.4044C4.50318 61.1914 4.52981 61.0716 4.54312 61.0316L5.08887 59.4875H5.88754L4.72947 62.243H4.15709L2.99902 59.4875Z" fill="white"/>
<path d="M7.07221 59.4875H6.31348V62.243H7.07221V59.4875Z" fill="white"/>
<path d="M8.50991 59.4875H9.455L10.4134 62.243H9.66798L9.53486 61.7504H8.46997L8.32355 62.243H7.57812L8.52322 59.4875M9.37513 61.218L9.0956 60.3128C9.0956 60.3128 9.05566 60.1398 9.00242 59.9401C8.94917 60.1398 8.92255 60.2729 8.90924 60.3128L8.62971 61.218H9.37513Z" fill="white"/>
<path d="M11.8912 59.4875H12.6899L13.2357 61.0316C13.2357 61.0316 13.2756 61.1914 13.3288 61.4044C13.3821 61.1914 13.4087 61.0716 13.422 61.0316L13.9678 59.4875H14.7664L13.6084 62.243H13.036L11.8779 59.4875" fill="white"/>
<path d="M15.1924 59.4875H16.8829V60.0999H15.9245V60.5791H16.8297V61.1648H15.9245V61.6306H16.8829V62.243H15.1924V59.4875Z" fill="white"/>
<path d="M17.5615 59.4875H18.4001C18.7861 59.4875 19.079 59.4876 19.3186 59.6739C19.5183 59.8336 19.6248 60.0599 19.6248 60.3528C19.6248 60.7787 19.4118 61.045 19.0124 61.1381L19.7579 62.243H18.9059L18.267 61.1648V62.243H17.5615V59.4875ZM18.4134 60.792C18.7329 60.792 18.8793 60.6989 18.8793 60.446C18.8793 60.1531 18.7329 60.0599 18.4267 60.0599H18.2803V60.7787H18.4267L18.4134 60.792Z" fill="white"/>
<path d="M21.0097 59.4875H20.251V62.243H21.0097V59.4875Z" fill="white"/>
<path d="M22.207 60.1398H21.5947V59.4875H23.5781V60.1398H22.9525V62.243H22.207V60.1398Z" fill="white"/>
<path d="M24.7631 59.4875H25.6949L26.6533 62.243H25.9078L25.7614 61.7504H24.6965L24.5501 62.243H23.8047L24.7631 59.4875ZM25.615 61.218L25.3355 60.3128C25.3355 60.3128 25.2955 60.1398 25.2423 59.9401C25.189 60.1398 25.1624 60.2729 25.1491 60.3128L24.8696 61.218H25.615Z" fill="white"/>
<path d="M27.8909 61.7372C28.0906 61.7372 28.237 61.6173 28.237 61.4576C28.237 61.2313 28.0906 61.1781 27.7711 61.0849C27.2786 60.9518 27.039 60.7521 27.039 60.3262C27.039 59.807 27.4117 59.4343 27.9974 59.4343C28.3036 59.4343 28.5698 59.5142 28.8094 59.6739L28.5698 60.2064C28.3967 60.0599 28.2104 59.9934 28.0373 59.9934C27.851 59.9934 27.7312 60.0999 27.7312 60.2197C27.7312 60.4194 27.9175 60.4593 28.1704 60.5258C28.663 60.659 28.9292 60.832 28.9292 61.3511C28.9292 61.9235 28.5165 62.3228 27.8776 62.3228C27.4916 62.3228 27.1987 62.203 26.8926 61.9235L27.2254 61.3644C27.4516 61.6174 27.6646 61.7372 27.8776 61.7372" fill="white"/>
<path d="M30.5801 59.4875H31.3787L31.9378 61.0316C31.9378 61.0316 31.9777 61.1914 32.031 61.4044C32.0842 61.1914 32.1109 61.0716 32.1242 61.0316L32.6699 59.4875H33.4686L32.3105 62.243H31.7381L30.5801 59.4875Z" fill="white"/>
<path d="M34.6533 59.4875H33.8945V62.243H34.6533V59.4875Z" fill="white"/>
<path d="M35.8516 60.1398H35.2393V59.4875H37.2226V60.1398H36.6103V62.243H35.8516V60.1398Z" fill="white"/>
<path d="M38.4074 59.4875H39.3525L40.3109 62.243H39.5654L39.4323 61.7504H38.3674L38.221 62.243H37.4756L38.434 59.4875M39.2859 61.218L39.0064 60.3128C39.0064 60.3128 38.9664 60.1398 38.9132 59.9401C38.8599 60.1398 38.8333 60.2729 38.82 60.3128L38.5405 61.218H39.2859Z" fill="white"/>
<path d="M23.1263 51.0216C23.3126 51.2346 23.4324 52.2595 22.5539 52.3394C21.0231 52.4592 20.291 52.3128 20.291 52.3128C20.291 52.3128 22.3409 52.0732 23.1263 51.0349" fill="#E2A035"/>
<path d="M29.9946 19.7138C30.0878 18.4626 30.6735 18.1697 31.4855 18.183C31.9381 18.183 32.6302 18.1964 34.2941 18.183C33.3624 18.2629 32.191 18.7554 32.0312 19.9801C31.8848 21.1115 31.8848 25.0383 31.8582 26.7155C31.0329 26.7421 29.9281 26.7155 29.6885 26.782C29.8083 25.0383 29.9015 20.9518 29.9946 19.7138Z" fill="#E2A035"/>
<path d="M22.0474 13.2979H21.6348V14.8553H22.0474V13.2979Z" fill="#E2A035"/>
<path d="M22.0474 12.9784L21.6348 11.7937V12.9651L22.0474 12.9784Z" fill="#E2A035"/>
</g>
<defs>
<clipPath id="clip0_1446_1264">
<rect width="206.855" height="64" fill="white" transform="translate(0.922852)"/>
</clipPath>
</defs>
</svg>
